<svg width="17" height="13" viewBox="0 0 17 13" fill="none" xmlns="http://www.w3.org/2000/svg">
<path d="M3.95301 0.21783C3.88625 0.149712 3.80672 0.0954165 3.71896 0.0580462C3.63121 0.0206759 3.53695 0.000963087 3.44158 3.44169e-05C3.3462 -0.000894253 3.25158 0.0169792 3.16312 0.0526336C3.07465 0.088288 2.99408 0.141025 2.92601 0.20783C2.15596 0.973409 1.54512 1.88389 1.12874 2.88674C0.712354 3.8896 0.498668 4.96497 0.500006 6.05083C0.498757 7.17835 0.72926 8.2941 1.17721 9.32882C1.62516 10.3635 2.28099 11.2951 3.10401 12.0658C3.24253 12.1939 3.4255 12.2629 3.61408 12.2582C3.80266 12.2536 3.98199 12.1756 4.11401 12.0408C4.43001 11.7248 4.39101 11.2218 4.08701 10.9308C3.4265 10.3014 2.9009 9.54416 2.54212 8.70525C2.18335 7.86634 1.99891 6.96324 2.00001 6.05083C2.00001 4.20483 2.74101 2.53083 3.94301 1.31283C4.23301 1.01783 4.26301 0.52783 3.95301 0.21783ZM5.71401 1.98083C5.58231 1.84532 5.40226 1.76754 5.21331 1.76454C5.02437 1.76154 4.84194 1.83356 4.70601 1.96483C4.16496 2.49878 3.7355 3.13501 3.44261 3.83648C3.14973 4.53795 2.99928 5.29067 3.00001 6.05083C2.99883 6.85458 3.16677 7.64959 3.4929 8.38421C3.81903 9.11882 4.29606 9.77661 4.89301 10.3148C5.03025 10.4361 5.2089 10.4999 5.39191 10.493C5.57492 10.4861 5.74826 10.4091 5.87601 10.2778C6.20401 9.94983 6.14301 9.43383 5.83501 9.14383C5.41281 8.74696 5.07651 8.26771 4.84689 7.73571C4.61727 7.20371 4.49921 6.63027 4.50001 6.05083C4.50001 4.90083 4.95701 3.85683 5.70001 3.09083C5.98601 2.79683 6.03301 2.29883 5.71401 1.98083ZM11.286 1.98083C11.4177 1.84532 11.5978 1.76754 11.7867 1.76454C11.9756 1.76154 12.1581 1.83356 12.294 1.96483C12.8351 2.49878 13.2645 3.13501 13.5574 3.83648C13.8503 4.53795 14.0007 5.29067 14 6.05083C14.0012 6.85458 13.8332 7.64959 13.5071 8.38421C13.181 9.11882 12.7039 9.77661 12.107 10.3148C11.9698 10.4361 11.7911 10.4999 11.6081 10.493C11.4251 10.4861 11.2517 10.4091 11.124 10.2778C10.796 9.94983 10.857 9.43383 11.165 9.14383C11.5872 8.74696 11.9235 8.26771 12.1531 7.73571C12.3827 7.20371 12.5008 6.63027 12.5 6.05083C12.5 4.90083 12.043 3.85683 11.3 3.09083C11.014 2.79683 10.967 2.29883 11.286 1.98083ZM13.047 0.21883C13.1138 0.150712 13.1933 0.0964164 13.2811 0.0590461C13.3688 0.0216758 13.4631 0.00196325 13.5584 0.00103458C13.6538 0.000105913 13.7484 0.0179791 13.8369 0.0536335C13.9254 0.089288 14.0059 0.142025 14.074 0.20883C14.8439 0.97429 15.4547 1.88461 15.8711 2.88728C16.2875 3.88995 16.5012 4.96514 16.5 6.05083C16.5013 7.17835 16.2708 8.2941 15.8228 9.32882C15.3749 10.3635 14.719 11.2951 13.896 12.0658C13.7575 12.1939 13.5745 12.2629 13.3859 12.2582C13.1974 12.2536 13.018 12.1756 12.886 12.0408C12.57 11.7248 12.609 11.2218 12.914 10.9308C13.5743 10.3013 14.0997 9.54404 14.4583 8.70513C14.8169 7.86623 15.0012 6.96317 15 6.05083C15 4.20483 14.259 2.53083 13.057 1.31283C12.767 1.01783 12.737 0.52783 13.047 0.21783V0.21883ZM8.50001 4.55083C8.10218 4.55083 7.72065 4.70887 7.43935 4.99017C7.15804 5.27147 7.00001 5.65301 7.00001 6.05083C7.00001 6.44865 7.15804 6.83019 7.43935 7.11149C7.72065 7.39279 8.10218 7.55083 8.50001 7.55083C8.89783 7.55083 9.27936 7.39279 9.56067 7.11149C9.84197 6.83019 10 6.44865 10 6.05083C10 5.65301 9.84197 5.27147 9.56067 4.99017C9.27936 4.70887 8.89783 4.55083 8.50001 4.55083Z" fill="#518638"/>
</svg>
