<?xml version="1.0" encoding="utf-8"?>
<!-- Generator: Adobe Illustrator 26.2.1, SVG Export Plug-In . SVG Version: 6.00 Build 0)  -->
<svg version="1.1" id="Capa_1" xmlns="http://www.w3.org/2000/svg" xmlns:xlink="http://www.w3.org/1999/xlink" x="0px" y="0px"
	 viewBox="0 0 14 12" style="enable-background:new 0 0 14 12;" xml:space="preserve">
<style type="text/css">
	.st0{fill:#318D36;}
</style>
<path class="st0" d="M6.4,0.4c0.2-0.5,1-0.5,1.2,0l1.3,3.4C9,3.9,9.1,4,9.2,4.1c0.1,0.1,0.2,0.1,0.4,0.1h3.3c0.6,0,0.9,0.7,0.4,1
	l-2.4,2c-0.1,0.1-0.2,0.2-0.2,0.3c0,0.1,0,0.2,0,0.4l0.9,3.4c0.2,0.5-0.5,1-1,0.7L7.4,10C7.3,9.9,7.1,9.9,7,9.9s-0.3,0-0.4,0.1
	l-3.2,1.9c-0.5,0.3-1.2-0.1-1-0.7l0.9-3.4c0-0.1,0-0.2,0-0.4S3.2,7.3,3.1,7.2l-2.4-2c-0.5-0.3-0.2-1,0.4-1h3.3c0.1,0,0.3,0,0.4-0.1
	C4.9,4,5,3.9,5.1,3.8L6.4,0.4z"/>
</svg>
