<?xml version="1.0" encoding="utf-8"?>
<!-- Generator: Adobe Illustrator 26.2.1, SVG Export Plug-In . SVG Version: 6.00 Build 0)  -->
<svg version="1.1" id="Capa_1" xmlns="http://www.w3.org/2000/svg" xmlns:xlink="http://www.w3.org/1999/xlink" x="0px" y="0px"
	 viewBox="0 0 87 88" style="enable-background:new 0 0 87 88;" xml:space="preserve">
<style type="text/css">
	.st0{fill:#318D36;}
</style>
<path class="st0" d="M37.4,51.8L28,42.4c-0.8-0.8-1.8-1.2-2.9-1.2c-1.2,0-2.2,0.4-3,1.3c-0.8,0.8-1.2,1.8-1.2,3s0.4,2.2,1.2,3
	l12.4,12.4c0.8,0.8,1.8,1.2,3,1.2s2.2-0.4,3-1.2l24.6-24.6c0.8-0.8,1.2-1.8,1.2-2.9c0-1.2-0.4-2.2-1.3-3c-0.8-0.8-1.8-1.2-3-1.2
	s-2.2,0.4-3,1.2L37.4,51.8z M43.5,87.3c-6,0-11.6-1.1-16.9-3.4s-9.9-5.4-13.8-9.3s-7-8.5-9.3-13.8C1.3,55.6,0.2,50,0.2,44
	s1.1-11.6,3.4-16.9s5.4-9.9,9.3-13.8s8.5-7,13.8-9.3s10.9-3.4,16.9-3.4S55.2,1.7,60.5,4s9.9,5.4,13.8,9.3s7,8.5,9.3,13.8
	S87,38,87,44s-1.1,11.6-3.4,16.9s-5.4,9.9-9.3,13.8s-8.5,7-13.8,9.3C55.1,86.2,49.5,87.3,43.5,87.3z"/>
</svg>
