<?xml version="1.0" encoding="utf-8"?>
<!-- Generator: Adobe Illustrator 26.2.1, SVG Export Plug-In . SVG Version: 6.00 Build 0)  -->
<svg version="1.1" id="Capa_1" xmlns="http://www.w3.org/2000/svg" xmlns:xlink="http://www.w3.org/1999/xlink" x="0px" y="0px"
	 viewBox="0 0 233 238" style="enable-background:new 0 0 233 238;" xml:space="preserve">
<style type="text/css">
	.st0{fill:url(#SVGID_1_);}
	.st1{fill:#FFFFFF;}
</style>
<linearGradient id="SVGID_1_" gradientUnits="userSpaceOnUse" x1="233.0006" y1="115.524" x2="-52.9539" y2="115.524" gradientTransform="matrix(1 0 0 -1 0 237.024)">
	<stop  offset="0" style="stop-color:#318D36"/>
	<stop  offset="0.2865" style="stop-color:#266B29"/>
	<stop  offset="0.6146" style="stop-color:#1D541F"/>
	<stop  offset="1" style="stop-color:#091C0B"/>
</linearGradient>
<path class="st0" d="M93.1,25.8C90.8,16.1,81,10.1,71.8,13.9c-22.4,9.3-41.5,25.4-54.4,46.3c-16.1,26-21.3,57.3-14.5,87.2
	c6.8,29.8,25.1,55.8,50.9,72.3c25.8,16.5,57,22.1,86.9,15.8c29.9-6.4,56.2-24.2,73-49.8s23-56.7,17.1-86.7
	c-5.9-30-23.4-56.5-48.7-73.7C161.8,11.4,137.8,4.4,113.6,5c-9.9,0.2-16.4,9.8-14.7,19.5c1.8,9.8,11.2,16,21.1,16.5
	c14.9,0.7,29.4,5.4,41.9,13.9c17.5,11.9,29.6,30.2,33.6,51s-0.2,42.3-11.8,59.9c-11.7,17.7-29.8,30-50.5,34.4
	c-20.7,4.4-42.3,0.5-60.1-10.9C55.3,178,42.7,160,38,139.4c-4.7-20.6-1.1-42.3,10-60.3c7.9-12.8,19.3-23.1,32.6-29.7
	C89.4,45,95.5,35.4,93.1,25.8z"/>
<circle cx="121" cy="22" r="22"/>
<circle class="st1" cx="121" cy="22" r="17"/>
</svg>
