<svg width="4" height="18" viewBox="0 0 4 18" fill="none" xmlns="http://www.w3.org/2000/svg">
<path d="M4 8.91892C4 10.009 3.1 10.9009 2 10.9009C0.9 10.9009 0 10.009 0 8.91892C0 7.82883 0.9 6.93694 2 6.93694C3.1 6.93694 4 7.82883 4 8.91892ZM2 3.96396C3.1 3.96396 4 3.07207 4 1.98198C4 0.891892 3.1 0 2 0C0.9 0 0 0.891892 0 1.98198C0 3.07207 0.9 3.96396 2 3.96396ZM2 13.8739C0.9 13.8739 0 14.7658 0 15.8559C0 16.9459 0.9 17.8378 2 17.8378C3.1 17.8378 4 16.9459 4 15.8559C4 14.7658 3.1 13.8739 2 13.8739Z" fill="#808080"/>
</svg>
