<svg width="357" height="276" viewBox="0 0 357 276" fill="none" xmlns="http://www.w3.org/2000/svg">
<path d="M154.148 38.7859C151.794 29.1397 141.987 23.101 132.817 26.9092C110.409 36.2154 91.3128 52.3579 78.3995 73.2518C62.3143 99.278 57.113 130.587 63.9192 160.416C70.7254 190.245 88.9928 216.2 114.775 232.673C140.558 249.146 171.786 254.815 201.713 248.456C231.641 242.097 257.866 224.22 274.723 198.687C291.58 173.154 297.716 142.015 291.806 111.995C285.895 81.9759 268.413 55.4864 243.135 38.249C222.842 24.4107 198.833 17.4272 174.576 18.0362C164.65 18.2855 158.145 27.7902 159.917 37.56C161.689 47.3298 171.107 53.5988 181.026 54.0337C195.884 54.6852 210.397 59.4456 222.878 67.9561C240.354 79.8733 252.44 98.187 256.526 118.941C260.612 139.695 256.37 161.224 244.716 178.876C233.061 196.529 214.931 208.888 194.24 213.284C173.549 217.681 151.96 213.761 134.135 202.372C116.31 190.984 103.681 173.04 98.975 152.417C94.2694 131.795 97.8654 110.149 108.986 92.1556C116.928 79.3059 128.251 69.0557 141.561 62.4193C150.447 57.9886 156.501 48.4322 154.148 38.7859Z" fill="url(#paint0_linear_1_2395)"/>
<circle cx="182" cy="35" r="22" fill="black"/>
<circle cx="182" cy="35" r="17" fill="white"/>
<defs>
<linearGradient id="paint0_linear_1_2395" x1="294" y1="158.445" x2="8.04545" y2="158.445" gradientUnits="userSpaceOnUse">
<stop stop-color="#006299"/>
<stop offset="0.286458" stop-color="#20475C"/>
<stop offset="0.614583" stop-color="#0D3043"/>
<stop offset="1" stop-color="#002C44"/>
</linearGradient>
</defs>
</svg>
