<svg width="9" height="9" viewBox="0 0 9 9" fill="none" xmlns="http://www.w3.org/2000/svg">
<path d="M8 0H1C0.445 0 0 0.445 0 1V8C0 8.26522 0.105357 8.51957 0.292893 8.70711C0.48043 8.89464 0.734784 9 1 9H8C8.555 9 9 8.555 9 8V1C9 0.734784 8.89464 0.48043 8.70711 0.292893C8.51957 0.105357 8.26522 0 8 0ZM8 8H1V1H8V8ZM7 6.11C7 6.6 6.6 7 6.11 7C5.62 7 5.225 6.6 5.225 6.11C5.225 5.62 5.62 5.225 6.11 5.225C6.6 5.225 7 5.62 7 6.11ZM2.75 7.015L2 6.265L6.265 2L7.015 2.75L2.75 7.015ZM2.025 2.915C2.025 2.42 2.42 2.025 2.915 2.025C3.405 2.025 3.8 2.42 3.8 2.915C3.8 3.405 3.405 3.8 2.915 3.8C2.42 3.8 2.025 3.405 2.025 2.915Z" fill="black"/>
</svg>
