<svg width="18" height="10" viewBox="0 0 18 10" fill="none" xmlns="http://www.w3.org/2000/svg">
<path d="M12.2727 0H4.09091L0 5V7.5H1.63636C1.63636 8.16304 1.89497 8.79893 2.35528 9.26777C2.8156 9.73661 3.43992 10 4.09091 10C4.7419 10 5.36622 9.73661 5.82654 9.26777C6.28685 8.79893 6.54545 8.16304 6.54545 7.5H11.4545C11.4545 8.16304 11.7131 8.79893 12.1735 9.26777C12.6338 9.73661 13.2581 10 13.9091 10C14.5601 10 15.1844 9.73661 15.6447 9.26777C16.105 8.79893 16.3636 8.16304 16.3636 7.5H18V5C18 4.075 17.2718 3.33333 16.3636 3.33333H14.7273L12.2727 0ZM4.5 1.25H7.77273V3.33333H2.86364L4.5 1.25ZM9 1.25H11.8636L13.4673 3.33333H9V1.25ZM4.09091 6.25C4.4164 6.25 4.72856 6.3817 4.95872 6.61612C5.18888 6.85054 5.31818 7.16848 5.31818 7.5C5.31818 7.83152 5.18888 8.14946 4.95872 8.38388C4.72856 8.6183 4.4164 8.75 4.09091 8.75C3.76542 8.75 3.45325 8.6183 3.2231 8.38388C2.99294 8.14946 2.86364 7.83152 2.86364 7.5C2.86364 7.16848 2.99294 6.85054 3.2231 6.61612C3.45325 6.3817 3.76542 6.25 4.09091 6.25ZM13.9091 6.25C14.2346 6.25 14.5467 6.3817 14.7769 6.61612C15.0071 6.85054 15.1364 7.16848 15.1364 7.5C15.1364 7.83152 15.0071 8.14946 14.7769 8.38388C14.5467 8.6183 14.2346 8.75 13.9091 8.75C13.5836 8.75 13.2714 8.6183 13.0413 8.38388C12.8111 8.14946 12.6818 7.83152 12.6818 7.5C12.6818 7.16848 12.8111 6.85054 13.0413 6.61612C13.2714 6.3817 13.5836 6.25 13.9091 6.25Z" fill="black"/>
</svg>
