<svg width="21" height="19" viewBox="0 0 21 19" fill="none" xmlns="http://www.w3.org/2000/svg">
<path d="M10.5 15.2734C11.75 15.2734 12.8127 14.8358 13.688 13.9604C14.5633 13.0851 15.0007 12.0228 15 10.7734C15 9.52344 14.5623 8.46077 13.687 7.58544C12.8117 6.7101 11.7493 6.27277 10.5 6.27344C9.25 6.27344 8.18734 6.7111 7.312 7.58644C6.43667 8.46177 5.99934 9.5241 6 10.7734C6 12.0234 6.43767 13.0861 7.313 13.9614C8.18833 14.8368 9.25067 15.2741 10.5 15.2734ZM2.5 18.7734C1.95 18.7734 1.479 18.5774 1.087 18.1854C0.695002 17.7934 0.499335 17.3228 0.500002 16.7734V4.77344C0.500002 4.22344 0.696002 3.75244 1.088 3.36044C1.48 2.96844 1.95067 2.77277 2.5 2.77344H5.65L7.5 0.773438H13.5L15.35 2.77344H18.5C19.05 2.77344 19.521 2.96944 19.913 3.36144C20.305 3.75344 20.5007 4.2241 20.5 4.77344V16.7734C20.5 17.3234 20.304 17.7944 19.912 18.1864C19.52 18.5784 19.0493 18.7741 18.5 18.7734H2.5ZM18.5 16.7734V4.77344H14.45L12.625 2.77344H8.375L6.55 4.77344H2.5V16.7734H18.5Z" fill="black"/>
</svg>
