<?xml version="1.0" encoding="utf-8"?>
<!-- Generator: Adobe Illustrator 26.2.1, SVG Export Plug-In . SVG Version: 6.00 Build 0)  -->
<svg version="1.1" id="Capa_1" xmlns="http://www.w3.org/2000/svg" xmlns:xlink="http://www.w3.org/1999/xlink" x="0px" y="0px"
	 viewBox="0 0 201 201" style="enable-background:new 0 0 201 201;" xml:space="preserve">
<style type="text/css">
	.st0{fill:#286095;}
	.st1{fill:#F8F8F8;stroke:#212121;stroke-width:5;stroke-miterlimit:10;}
</style>
<path class="st0" d="M11.3,158.2h5.2v25.5h-5.2V158.2z"/>
<path class="st0" d="M34.8,165.6l2.4-3H22v-4.4h24.9l-14.3,17.9l-2.5,3.2h16v4.4H20.7L34.8,165.6z"/>
<path class="st0" d="M50.4,158.2h5.2v25.5h-5.2V158.2z"/>
<path class="st0" d="M73.2,158.2h13.4c2,0,3.7,0.2,5.1,0.6c1.4,0.4,2.6,1,3.6,1.8c0.9,0.8,1.6,1.8,2.1,2.9c0.5,1.2,0.7,2.5,0.7,3.9
	s-0.2,2.6-0.7,3.8s-1.2,2.2-2.1,3s-2.1,1.5-3.6,2c-1.4,0.5-3.1,0.7-5.1,0.7h-8.3v6.8h-5.2L73.2,158.2L73.2,158.2z M86.8,172.4
	c1,0,1.8-0.1,2.6-0.3c0.7-0.2,1.4-0.6,1.8-1c0.5-0.4,0.9-1,1.1-1.6s0.4-1.3,0.4-2.1c0-1.5-0.5-2.7-1.5-3.5s-2.4-1.3-4.4-1.3h-8.4
	v9.8L86.8,172.4L86.8,172.4z"/>
<path class="st0" d="M112.5,158.2h5.5l12.3,25.5h-5.4l-2-4.3H108l-2,4.3h-5.4L112.5,158.2z M120.8,175.1l-5.5-11.6l-5.4,11.6H120.8z
	"/>
<path class="st0" d="M134.3,158.2h13c2,0,3.7,0.2,5.1,0.6c1.4,0.4,2.6,1,3.6,1.8c0.9,0.8,1.6,1.7,2.1,2.8s0.7,2.4,0.7,3.8
	c0,0.9-0.1,1.8-0.3,2.7c-0.2,0.8-0.6,1.6-1.1,2.3s-1.1,1.4-1.8,1.9c-0.7,0.6-1.6,1-2.5,1.4l5.5,8.2h-6.3l-4.8-7.2h-0.1h-7.8v7.3
	h-5.2L134.3,158.2L134.3,158.2z M147.4,171.9c1,0,1.8-0.1,2.6-0.3c0.7-0.2,1.4-0.5,1.8-1c0.5-0.4,0.9-0.9,1.1-1.5
	c0.2-0.6,0.4-1.3,0.4-2c0-1.4-0.5-2.5-1.5-3.3s-2.5-1.2-4.4-1.2h-7.9v9.3H147.4z"/>
<path class="st0" d="M164.8,158.2h5.2v13.2l13.5-13.2h6.6l-12.6,12.2l12.6,13.3h-6.9l-9.4-9.7l-3.8,3.7v6h-5.2L164.8,158.2
	L164.8,158.2z"/>
<path class="st0" d="M10.9,12.5h15.7l143.6,96.2V11.4h19.2v123h-15.7L30.1,38.3v97.2H10.9V12.5z"/>
<path class="st0" d="M126.5,70.6c0,14.5-11.8,26.3-26.3,26.3S73.9,85.1,73.9,70.6s11.8-26.3,26.3-26.3S126.5,56.1,126.5,70.6z"/>
<circle class="st1" cx="100.1" cy="70.6" r="19.6"/>
</svg>
