<?xml version="1.0" encoding="utf-8"?>
<!-- Generator: Adobe Illustrator 26.2.1, SVG Export Plug-In . SVG Version: 6.00 Build 0)  -->
<svg version="1.1" id="Capa_1" xmlns="http://www.w3.org/2000/svg" xmlns:xlink="http://www.w3.org/1999/xlink" x="0px" y="0px"
	 viewBox="0 0 37 27" style="enable-background:new 0 0 37 27;" xml:space="preserve">
<style type="text/css">
	.st0{fill:#318D36;}
</style>
<path class="st0" d="M34.6,1H2.4C1.9,1,1.4,1.1,1.1,1.5C0.8,1.8,0.6,2.3,0.6,2.7v7.2h1.6c1.8,0,3.4,1.2,3.7,3c0.1,0.5,0.1,1-0.1,1.5
	c-0.1,0.5-0.4,1-0.7,1.4c-0.3,0.4-0.8,0.7-1.2,0.9c-0.5,0.2-1,0.3-1.5,0.3H0.6v7.2c0,0.5,0.2,0.9,0.5,1.3C1.4,25.9,1.9,26,2.4,26
	h32.3c0.5,0,0.9-0.2,1.3-0.5c0.3-0.3,0.5-0.8,0.5-1.3v-7.2h-1.8c-0.5,0-1-0.1-1.5-0.3c-0.5-0.2-0.9-0.5-1.2-0.9
	c-0.3-0.4-0.6-0.9-0.7-1.4c-0.1-0.5-0.2-1-0.1-1.5c0.3-1.8,1.9-3,3.7-3h1.6V2.7c0-0.5-0.2-0.9-0.5-1.3C35.6,1.1,35.1,1,34.6,1z
	 M13.1,8.1c0.5,0,0.9,0.2,1.3,0.5c0.3,0.3,0.5,0.8,0.5,1.3c0,0.5-0.2,0.9-0.5,1.3c-0.3,0.3-0.8,0.5-1.3,0.5c-0.5,0-0.9-0.2-1.3-0.5
	c-0.3-0.3-0.5-0.8-0.5-1.3c0-0.5,0.2-0.9,0.5-1.3C12.2,8.3,12.6,8.1,13.1,8.1z M11.7,19.6L22.4,5.3l2.9,2.2L14.6,21.7L11.7,19.6z
	 M23.9,18.9c-0.5,0-0.9-0.2-1.3-0.5c-0.3-0.3-0.5-0.8-0.5-1.3s0.2-0.9,0.5-1.3c0.3-0.3,0.8-0.5,1.3-0.5c0.5,0,0.9,0.2,1.3,0.5
	c0.3,0.3,0.5,0.8,0.5,1.3s-0.2,0.9-0.5,1.3C24.8,18.7,24.4,18.9,23.9,18.9z"/>
</svg>
