<svg width="14" height="14" viewBox="0 0 14 14" fill="none" xmlns="http://www.w3.org/2000/svg">
<path d="M6.06666 10.0663L10.7667 5.36634L9.83333 4.43301L6.06666 8.19967L4.16666 6.29967L3.23333 7.23301L6.06666 10.0663ZM6.99999 13.6663C6.07777 13.6663 5.21111 13.4912 4.39999 13.141C3.58888 12.7912 2.88333 12.3163 2.28333 11.7163C1.68333 11.1163 1.20844 10.4108 0.858662 9.59967C0.508439 8.78856 0.333328 7.9219 0.333328 6.99967C0.333328 6.07745 0.508439 5.21079 0.858662 4.39967C1.20844 3.58856 1.68333 2.88301 2.28333 2.28301C2.88333 1.68301 3.58888 1.2079 4.39999 0.857674C5.21111 0.507897 6.07777 0.333008 6.99999 0.333008C7.92222 0.333008 8.78888 0.507897 9.59999 0.857674C10.4111 1.2079 11.1167 1.68301 11.7167 2.28301C12.3167 2.88301 12.7915 3.58856 13.1413 4.39967C13.4915 5.21079 13.6667 6.07745 13.6667 6.99967C13.6667 7.9219 13.4915 8.78856 13.1413 9.59967C12.7915 10.4108 12.3167 11.1163 11.7167 11.7163C11.1167 12.3163 10.4111 12.7912 9.59999 13.141C8.78888 13.4912 7.92222 13.6663 6.99999 13.6663Z" fill="#518638"/>
</svg>
