<svg width="17" height="18" viewBox="0 0 17 18" fill="none" xmlns="http://www.w3.org/2000/svg">
<path d="M1.022 8.56471C0.686 9.00871 0.5 9.55271 0.5 10.1187C0.5 11.0167 1.002 11.8667 1.81 12.3407C2.01801 12.4627 2.25485 12.5269 2.496 12.5267L7.292 12.5267L7.172 14.9847C7.144 15.5787 7.354 16.1427 7.762 16.5727C7.96223 16.7847 8.20379 16.9533 8.47177 17.0682C8.73974 17.1831 9.02843 17.2418 9.32 17.2407C10.36 17.2407 11.28 16.5407 11.556 15.5387L13.274 9.31871H15.86C16.214 9.31871 16.5 9.03271 16.5 8.67871L16.5 1.39871C16.5 1.04471 16.214 0.758707 15.86 0.758707H3.834C3.65 0.758707 3.47 0.794708 3.304 0.866709C2.352 1.27271 1.738 2.20271 1.738 3.23471C1.738 3.48671 1.774 3.73471 1.846 3.97471C1.51 4.41871 1.324 4.96271 1.324 5.52871C1.324 5.78071 1.36 6.02871 1.432 6.26871C1.096 6.71271 0.910001 7.25671 0.910001 7.82271C0.914001 8.07471 0.95 8.32471 1.022 8.56471ZM15.06 2.19871V7.87871H13.44V2.19871H15.06ZM2.332 9.25871L2.77 8.87871L2.492 8.37071C2.40041 8.20337 2.35292 8.01547 2.354 7.82471C2.354 7.49471 2.498 7.18071 2.746 6.96471L3.184 6.58471L2.906 6.07671C2.81441 5.90937 2.76692 5.72147 2.768 5.53071C2.768 5.20071 2.912 4.88671 3.16 4.67071L3.598 4.29071L3.32 3.78271C3.22841 3.61537 3.18092 3.42747 3.182 3.23671C3.182 2.78871 3.446 2.38471 3.854 2.20071L12.16 2.20071L12.16 7.94271L10.17 15.1527C10.1187 15.3375 10.0085 15.5005 9.85623 15.6171C9.70393 15.7337 9.51779 15.7974 9.326 15.7987C9.174 15.7987 9.024 15.7547 8.904 15.6647C8.706 15.5167 8.6 15.2927 8.612 15.0547L8.804 11.0867L2.516 11.0867C2.16 10.8687 1.94 10.5007 1.94 10.1187C1.94 9.78871 2.084 9.47671 2.332 9.25871Z" fill="#B3B3B3"/>
</svg>
