<?xml version="1.0" encoding="utf-8"?>
<!-- Generator: Adobe Illustrator 26.2.1, SVG Export Plug-In . SVG Version: 6.00 Build 0)  -->
<svg version="1.1" id="Capa_1" xmlns="http://www.w3.org/2000/svg" xmlns:xlink="http://www.w3.org/1999/xlink" x="0px" y="0px"
	 viewBox="0 0 47 34" style="enable-background:new 0 0 47 34;" xml:space="preserve">
<style type="text/css">
	.st0{fill:#318D36;}
	.st1{fill:#FFFFFF;}
</style>
<path class="st0" d="M5.6,0.5c-2.8,0-5.1,2.3-5.1,5.1v15.8c0,2.8,2.3,5.1,5.1,5.1h13.9l4.7,7.1l4.7-7.1h12.6c2.8,0,5.1-2.3,5.1-5.1
	V5.6c0-2.8-2.3-5.1-5.1-5.1H5.6z"/>
<path class="st1" d="M10.1,11.7c0-0.4-0.2-0.6-0.5-0.8c-0.3-0.2-0.6-0.3-1.1-0.3c-0.3,0-0.6,0-0.8,0.1c-0.2,0.1-0.4,0.2-0.5,0.4
	C7.1,11.2,7,11.4,7,11.6c0,0.2,0,0.3,0.1,0.4c0.1,0.1,0.2,0.2,0.3,0.3c0.1,0.1,0.3,0.2,0.5,0.2c0.2,0.1,0.4,0.1,0.6,0.2l0.8,0.2
	c0.4,0.1,0.8,0.2,1.1,0.4c0.3,0.2,0.6,0.3,0.9,0.6c0.2,0.2,0.4,0.5,0.6,0.8c0.1,0.3,0.2,0.6,0.2,1c0,0.6-0.1,1.1-0.4,1.5
	c-0.3,0.4-0.7,0.7-1.2,1c-0.5,0.2-1.2,0.3-1.9,0.3c-0.7,0-1.4-0.1-1.9-0.3c-0.5-0.2-1-0.6-1.3-1c-0.3-0.5-0.5-1-0.5-1.7h1.9
	c0,0.3,0.1,0.6,0.3,0.8c0.2,0.2,0.4,0.4,0.6,0.5c0.3,0.1,0.6,0.2,0.9,0.2c0.3,0,0.6,0,0.9-0.1c0.2-0.1,0.4-0.2,0.6-0.4
	c0.1-0.2,0.2-0.4,0.2-0.6c0-0.2-0.1-0.4-0.2-0.5c-0.1-0.1-0.3-0.3-0.5-0.4c-0.2-0.1-0.5-0.2-0.8-0.3l-1-0.3
	c-0.8-0.2-1.4-0.5-1.8-0.9C5.3,12.9,5,12.4,5,11.7c0-0.6,0.1-1,0.4-1.5c0.3-0.4,0.7-0.7,1.2-1C7.2,9,7.8,8.9,8.5,8.9
	c0.7,0,1.3,0.1,1.8,0.4c0.5,0.2,0.9,0.6,1.2,1c0.3,0.4,0.4,0.9,0.4,1.5H10.1z"/>
<path class="st1" d="M13.4,18.3V9H17c0.7,0,1.3,0.1,1.8,0.4c0.5,0.3,0.9,0.6,1.1,1.1c0.3,0.5,0.4,1,0.4,1.6s-0.1,1.2-0.4,1.6
	c-0.3,0.5-0.6,0.8-1.1,1.1c-0.5,0.3-1.1,0.4-1.8,0.4h-1.6v-1.6h1.3c0.4,0,0.7-0.1,0.9-0.2c0.2-0.1,0.4-0.3,0.5-0.5
	c0.1-0.2,0.2-0.5,0.2-0.8c0-0.3-0.1-0.6-0.2-0.8c-0.1-0.2-0.3-0.4-0.5-0.5c-0.2-0.1-0.6-0.2-0.9-0.2h-1.3v7.6H13.4z"/>
<path class="st1" d="M30,13.7c0,1-0.2,1.9-0.6,2.6c-0.4,0.7-0.9,1.2-1.5,1.6c-0.6,0.4-1.4,0.6-2.2,0.6c-0.8,0-1.5-0.2-2.2-0.6
	c-0.6-0.4-1.2-0.9-1.5-1.6s-0.6-1.6-0.6-2.6c0-1,0.2-1.9,0.6-2.6c0.4-0.7,0.9-1.2,1.5-1.6c0.6-0.4,1.4-0.6,2.2-0.6
	c0.8,0,1.5,0.2,2.2,0.6c0.7,0.4,1.2,0.9,1.5,1.6C29.8,11.8,30,12.6,30,13.7z M28,13.7c0-0.7-0.1-1.2-0.3-1.6c-0.2-0.4-0.5-0.8-0.8-1
	c-0.3-0.2-0.8-0.3-1.2-0.3c-0.5,0-0.9,0.1-1.2,0.3c-0.3,0.2-0.6,0.6-0.8,1c-0.2,0.4-0.3,1-0.3,1.6c0,0.7,0.1,1.2,0.3,1.6
	c0.2,0.4,0.5,0.8,0.8,1c0.3,0.2,0.8,0.3,1.2,0.3c0.5,0,0.9-0.1,1.2-0.3c0.3-0.2,0.6-0.6,0.8-1C27.9,14.9,28,14.3,28,13.7z"/>
<path class="st1" d="M30.6,10.6V9h7.5v1.6h-2.8v7.6h-1.9v-7.6H30.6z"/>
<path class="st1" d="M41.7,9l-0.2,6.5h-1.6L39.7,9H41.7z M40.7,18.4c-0.3,0-0.6-0.1-0.8-0.3c-0.2-0.2-0.3-0.5-0.3-0.8
	c0-0.3,0.1-0.5,0.3-0.8c0.2-0.2,0.5-0.3,0.8-0.3c0.3,0,0.5,0.1,0.7,0.3c0.2,0.2,0.3,0.5,0.3,0.8c0,0.2-0.1,0.4-0.2,0.5
	c-0.1,0.2-0.2,0.3-0.4,0.4C41,18.3,40.9,18.4,40.7,18.4z"/>
</svg>
