<svg width="8" height="12" viewBox="0 0 8 12" fill="none" xmlns="http://www.w3.org/2000/svg">
<path d="M1.20748 0.551575C1.11478 0.644088 1.04123 0.753977 0.991051 0.87495C0.940869 0.995924 0.915039 1.12561 0.915039 1.25657C0.915039 1.38754 0.940869 1.51723 0.991051 1.6382C1.04123 1.75917 1.11478 1.86906 1.20748 1.96157L5.08748 5.84157L1.20748 9.72157C1.1149 9.81416 1.04146 9.92407 0.991357 10.045C0.941252 10.166 0.915462 10.2956 0.915462 10.4266C0.915462 10.5575 0.941252 10.6872 0.991357 10.8081C1.04146 10.9291 1.1149 11.039 1.20748 11.1316C1.30007 11.2242 1.40998 11.2976 1.53094 11.3477C1.6519 11.3978 1.78155 11.4236 1.91248 11.4236C2.04341 11.4236 2.17306 11.3978 2.29403 11.3477C2.41499 11.2976 2.5249 11.2242 2.61748 11.1316L7.20748 6.54157C7.30019 6.44906 7.37373 6.33917 7.42392 6.2182C7.4741 6.09723 7.49993 5.96754 7.49993 5.83657C7.49993 5.70561 7.4741 5.57592 7.42392 5.45495C7.37373 5.33398 7.30019 5.22409 7.20748 5.13157L2.61748 0.541575C2.23748 0.161575 1.59748 0.161575 1.20748 0.551575Z" fill="black"/>
</svg>
