<svg width="30" height="30" viewBox="0 0 30 30" fill="none" xmlns="http://www.w3.org/2000/svg">
<path d="M21.8182 16.1429L22.7159 16.2571L22.6932 16.52L23.2273 16.7143L23.3977 16.5314C23.9659 16.8286 24.4545 17.2857 24.7727 17.8571L24.5795 18.0514L24.8068 18.5657L25.0682 18.5429C25.1705 18.8743 25.2273 19.2171 25.2273 19.5714L25.1136 20.4629L24.8409 20.4514L24.625 20.9886L24.8409 21.16C24.5341 21.7429 24.0909 22.2229 23.5227 22.5429L23.3295 22.3371L22.8068 22.5657L22.8295 22.84C22.5114 22.9429 22.1705 23 21.8182 23L20.9205 22.8857L20.9318 22.6L20.4091 22.3943L20.2273 22.6114C19.6591 22.3029 19.1705 21.8571 18.8523 21.2857L19.0568 21.08L18.8295 20.5543L18.5568 20.5771C18.4659 20.2571 18.4091 19.9257 18.4091 19.5714L18.5341 18.6571L18.7955 18.6686L19.0114 18.1429L18.8068 17.9714C19.1136 17.3886 19.5455 16.92 20.1136 16.5886L20.3068 16.7829L20.8295 16.5543L20.8068 16.3029C21.125 16.2 21.4659 16.1429 21.8182 16.1429ZM21.8182 17.8571C20.875 17.8571 20.1136 18.6229 20.1136 19.5714C20.1136 20.52 20.875 21.2857 21.8182 21.2857C22.7614 21.2857 23.5227 20.52 23.5227 19.5714C23.5227 18.6229 22.7614 17.8571 21.8182 17.8571ZM8.18182 16.1429L9.07955 16.2571L9.05682 16.52L9.59091 16.7143L9.76136 16.5314C10.3295 16.8286 10.8182 17.2857 11.1364 17.8571L10.9432 18.0514L11.1705 18.5657L11.4318 18.5429C11.5341 18.8743 11.5909 19.2171 11.5909 19.5714L11.4773 20.4629L11.1932 20.4514L10.9886 20.9886L11.2045 21.16C10.8977 21.7429 10.4545 22.2229 9.88636 22.5429L9.69318 22.3371L9.17045 22.5657L9.19318 22.84C8.875 22.9429 8.53409 23 8.18182 23L7.28409 22.8857L7.29545 22.6L6.77273 22.3943L6.59091 22.6114C6.02273 22.3029 5.53409 21.8571 5.21591 21.2857L5.42045 21.08L5.19318 20.5543L4.92045 20.5771C4.82955 20.2571 4.77273 19.9257 4.77273 19.5714L4.89773 18.6571L5.15909 18.6686L5.375 18.1429L5.17045 17.9714C5.47727 17.3886 5.90909 16.92 6.47727 16.5886L6.67045 16.7829L7.19318 16.5543L7.17045 16.3029C7.48864 16.2 7.82955 16.1429 8.18182 16.1429ZM8.18182 17.8571C7.23864 17.8571 6.47727 18.6229 6.47727 19.5714C6.47727 20.52 7.23864 21.2857 8.18182 21.2857C9.125 21.2857 9.88636 20.52 9.88636 19.5714C9.88636 18.6229 9.125 17.8571 8.18182 17.8571ZM19.5455 7L22.9545 11.5714H25.2273C26.4886 11.5714 27.5 12.5886 27.5 13.8571V17.2857H25.2273C25.2273 15.3886 23.7045 13.8571 21.8182 13.8571C19.9318 13.8571 18.4091 15.3886 18.4091 17.2857H11.5909C11.5909 15.3886 10.0682 13.8571 8.18182 13.8571C6.29545 13.8571 4.77273 15.3886 4.77273 17.2857H2.5V11.5714H13.2955V7H19.5455ZM15 8.71429V11.5714H21.2045L18.9773 8.71429H15Z" fill="black"/>
</svg>
