<?xml version="1.0" encoding="utf-8"?>
<!-- Generator: Adobe Illustrator 26.2.1, SVG Export Plug-In . SVG Version: 6.00 Build 0)  -->
<svg version="1.1" id="Capa_1" xmlns="http://www.w3.org/2000/svg" xmlns:xlink="http://www.w3.org/1999/xlink" x="0px" y="0px"
	 viewBox="0 0 22 19" style="enable-background:new 0 0 22 19;" xml:space="preserve">
<style type="text/css">
	.st0{fill:#FFF500;}
</style>
<polygon points="9.8,5.8 9.7,15.2 12.4,15 12.3,6 "/>
<path class="st0" d="M12.3,1.1l8.6,15c0.1,0.2,0.2,0.5,0.2,0.8s-0.1,0.5-0.2,0.8c-0.1,0.2-0.3,0.4-0.5,0.5c-0.2,0.1-0.5,0.2-0.8,0.2
	H2.4c-0.3,0-0.5-0.1-0.7-0.2c-0.2-0.1-0.4-0.3-0.5-0.5c-0.1-0.2-0.2-0.5-0.2-0.8s0.1-0.5,0.2-0.8l8.6-15C10.3,0.1,11.7,0.1,12.3,1.1
	z M11,13c-0.3,0-0.5,0.1-0.7,0.3C10.1,13.5,10,13.7,10,14c0,0.3,0.1,0.5,0.3,0.7c0.2,0.2,0.4,0.3,0.7,0.3c0.3,0,0.5-0.1,0.7-0.3
	c0.2-0.2,0.3-0.4,0.3-0.7c0-0.3-0.1-0.5-0.3-0.7C11.5,13.1,11.3,13,11,13z M11,6c-0.2,0-0.5,0.1-0.7,0.3C10.2,6.4,10,6.6,10,6.9
	L10,7v4c0,0.3,0.1,0.5,0.3,0.7c0.2,0.2,0.4,0.3,0.7,0.3c0.3,0,0.5-0.1,0.7-0.2c0.2-0.2,0.3-0.4,0.4-0.6l0-0.1V7
	c0-0.3-0.1-0.5-0.3-0.7C11.5,6.1,11.3,6,11,6z"/>
</svg>
