<svg width="77" height="45" viewBox="0 0 77 45" fill="none" xmlns="http://www.w3.org/2000/svg">
<path d="M30.5 19.7344C30.2167 19.7344 29.9793 19.6384 29.788 19.4464C29.596 19.255 29.5 19.0177 29.5 18.7344V16.7344C29.5 16.451 29.596 16.2134 29.788 16.0214C29.9793 15.83 30.2167 15.7344 30.5 15.7344H32.5C32.7833 15.7344 33.021 15.83 33.213 16.0214C33.4043 16.2134 33.5 16.451 33.5 16.7344V18.7344C33.5 19.0177 33.4043 19.255 33.213 19.4464C33.021 19.6384 32.7833 19.7344 32.5 19.7344H30.5ZM35.5 19.7344C35.2167 19.7344 34.9793 19.6384 34.788 19.4464C34.596 19.255 34.5 19.0177 34.5 18.7344V16.7344C34.5 16.451 34.596 16.2134 34.788 16.0214C34.9793 15.83 35.2167 15.7344 35.5 15.7344H46.5C46.7833 15.7344 47.0207 15.83 47.212 16.0214C47.404 16.2134 47.5 16.451 47.5 16.7344V18.7344C47.5 19.0177 47.404 19.255 47.212 19.4464C47.0207 19.6384 46.7833 19.7344 46.5 19.7344H35.5ZM35.5 24.7344C35.2167 24.7344 34.9793 24.6384 34.788 24.4464C34.596 24.255 34.5 24.0177 34.5 23.7344V21.7344C34.5 21.451 34.596 21.2134 34.788 21.0214C34.9793 20.83 35.2167 20.7344 35.5 20.7344H46.5C46.7833 20.7344 47.0207 20.83 47.212 21.0214C47.404 21.2134 47.5 21.451 47.5 21.7344V23.7344C47.5 24.0177 47.404 24.255 47.212 24.4464C47.0207 24.6384 46.7833 24.7344 46.5 24.7344H35.5ZM30.5 24.7344C30.2167 24.7344 29.9793 24.6384 29.788 24.4464C29.596 24.255 29.5 24.0177 29.5 23.7344V21.7344C29.5 21.451 29.596 21.2134 29.788 21.0214C29.9793 20.83 30.2167 20.7344 30.5 20.7344H32.5C32.7833 20.7344 33.021 20.83 33.213 21.0214C33.4043 21.2134 33.5 21.451 33.5 21.7344V23.7344C33.5 24.0177 33.4043 24.255 33.213 24.4464C33.021 24.6384 32.7833 24.7344 32.5 24.7344H30.5ZM35.5 29.7344C35.2167 29.7344 34.9793 29.6384 34.788 29.4464C34.596 29.255 34.5 29.0177 34.5 28.7344V26.7344C34.5 26.451 34.596 26.2134 34.788 26.0214C34.9793 25.83 35.2167 25.7344 35.5 25.7344H46.5C46.7833 25.7344 47.0207 25.83 47.212 26.0214C47.404 26.2134 47.5 26.451 47.5 26.7344V28.7344C47.5 29.0177 47.404 29.255 47.212 29.4464C47.0207 29.6384 46.7833 29.7344 46.5 29.7344H35.5ZM30.5 29.7344C30.2167 29.7344 29.9793 29.6384 29.788 29.4464C29.596 29.255 29.5 29.0177 29.5 28.7344V26.7344C29.5 26.451 29.596 26.2134 29.788 26.0214C29.9793 25.83 30.2167 25.7344 30.5 25.7344H32.5C32.7833 25.7344 33.021 25.83 33.213 26.0214C33.4043 26.2134 33.5 26.451 33.5 26.7344V28.7344C33.5 29.0177 33.4043 29.255 33.213 29.4464C33.021 29.6384 32.7833 29.7344 32.5 29.7344H30.5Z" fill="#BCBCBC"/>
</svg>
