<svg width="16" height="15" viewBox="0 0 16 15" fill="none" xmlns="http://www.w3.org/2000/svg">
<path fill-rule="evenodd" clip-rule="evenodd" d="M15 6.49991H3.135L6.768 2.13991C7.122 1.71591 7.064 1.08491 6.64 0.731909C6.215 0.377909 5.585 0.435909 5.232 0.859909L0.232 6.85991C0.193 6.90691 0.173 6.96191 0.144 7.01391C0.12 7.05591 0.091 7.09191 0.073 7.13791C0.028 7.25291 0.001 7.37391 0.001 7.49591C0.001 7.49691 0 7.49891 0 7.49991C0 7.50091 0.001 7.50291 0.001 7.50391C0.001 7.62591 0.028 7.74691 0.073 7.86191C0.091 7.90791 0.12 7.94391 0.144 7.98591C0.173 8.03791 0.193 8.09291 0.232 8.13991L5.232 14.1399C5.43 14.3769 5.714 14.4999 6 14.4999C6.226 14.4999 6.453 14.4239 6.64 14.2679C7.064 13.9149 7.122 13.2839 6.768 12.8599L3.135 8.49991H15C15.552 8.49991 16 8.05191 16 7.49991C16 6.94791 15.552 6.49991 15 6.49991Z" fill="#222B45"/>
</svg>
