<svg width="17" height="18" viewBox="0 0 17 18" fill="none" xmlns="http://www.w3.org/2000/svg">
<path d="M15.978 9.4348C16.314 8.9908 16.5 8.4468 16.5 7.8808C16.5 6.9828 15.998 6.1328 15.19 5.6588C14.982 5.53679 14.7452 5.47258 14.504 5.4728H9.708L9.828 3.0148C9.856 2.4208 9.646 1.8568 9.238 1.4268C9.03777 1.21486 8.79621 1.04623 8.52823 0.931334C8.26026 0.816439 7.97157 0.757719 7.68 0.758804C6.64 0.758804 5.72 1.4588 5.444 2.4608L3.726 8.6808H1.14C0.786 8.6808 0.5 8.9668 0.5 9.3208V16.6008C0.5 16.9548 0.786 17.2408 1.14 17.2408H13.166C13.35 17.2408 13.53 17.2048 13.696 17.1328C14.648 16.7268 15.262 15.7968 15.262 14.7648C15.262 14.5128 15.226 14.2648 15.154 14.0248C15.49 13.5808 15.676 13.0368 15.676 12.4708C15.676 12.2188 15.64 11.9708 15.568 11.7308C15.904 11.2868 16.09 10.7428 16.09 10.1768C16.086 9.9248 16.05 9.6748 15.978 9.4348ZM1.94 15.8008V10.1208H3.56V15.8008H1.94ZM14.668 8.7408L14.23 9.1208L14.508 9.62881C14.5996 9.79615 14.6471 9.98404 14.646 10.1748C14.646 10.5048 14.502 10.8188 14.254 11.0348L13.816 11.4148L14.094 11.9228C14.1856 12.0901 14.2331 12.278 14.232 12.4688C14.232 12.7988 14.088 13.1128 13.84 13.3288L13.402 13.7088L13.68 14.2168C13.7716 14.3841 13.8191 14.572 13.818 14.7628C13.818 15.2108 13.554 15.6148 13.146 15.7988H4.84V10.0568L6.83 2.8468C6.88131 2.662 6.99147 2.49897 7.14377 2.3824C7.29607 2.26583 7.48221 2.20208 7.674 2.2008C7.826 2.2008 7.976 2.2448 8.096 2.3348C8.294 2.4828 8.4 2.7068 8.388 2.9448L8.196 6.9128H14.484C14.84 7.1308 15.06 7.4988 15.06 7.8808C15.06 8.2108 14.916 8.5228 14.668 8.7408Z" fill="#B3B3B3"/>
</svg>
