<svg width="29" height="26" viewBox="0 0 29 26" fill="none" xmlns="http://www.w3.org/2000/svg">
<path d="M23.25 8V5.5H20.75V3H23.25V0.5H25.75V3H28.25V5.5H25.75V8H23.25ZM3.25 25.5C2.5625 25.5 1.97417 25.2554 1.485 24.7663C0.995 24.2763 0.75 23.6875 0.75 23V8C0.75 7.3125 0.995 6.72417 1.485 6.235C1.97417 5.745 2.5625 5.5 3.25 5.5H7.1875L9.5 3H17V5.5H10.5938L8.3125 8H3.25V23H23.25V11.75H25.75V23C25.75 23.6875 25.5054 24.2763 25.0163 24.7663C24.5263 25.2554 23.9375 25.5 23.25 25.5H3.25ZM13.25 21.125C14.8125 21.125 16.1408 20.5783 17.235 19.485C18.3283 18.3908 18.875 17.0625 18.875 15.5C18.875 13.9375 18.3283 12.6092 17.235 11.515C16.1408 10.4217 14.8125 9.875 13.25 9.875C11.6875 9.875 10.3592 10.4217 9.265 11.515C8.17167 12.6092 7.625 13.9375 7.625 15.5C7.625 17.0625 8.17167 18.3908 9.265 19.485C10.3592 20.5783 11.6875 21.125 13.25 21.125ZM13.25 18.625C12.375 18.625 11.6354 18.3229 11.0312 17.7188C10.4271 17.1146 10.125 16.375 10.125 15.5C10.125 14.625 10.4271 13.8854 11.0312 13.2812C11.6354 12.6771 12.375 12.375 13.25 12.375C14.125 12.375 14.8646 12.6771 15.4688 13.2812C16.0729 13.8854 16.375 14.625 16.375 15.5C16.375 16.375 16.0729 17.1146 15.4688 17.7188C14.8646 18.3229 14.125 18.625 13.25 18.625Z" fill="black"/>
</svg>
