<svg width="47" height="34" viewBox="0 0 47 34" fill="none" xmlns="http://www.w3.org/2000/svg">
<path d="M5.55098 0.5C2.7614 0.5 0.5 2.77301 0.5 5.57692V21.3516C0.5 24.1556 2.7614 26.4286 5.55098 26.4286H19.4446L24.1314 33.5L28.8181 26.4286H41.449C44.2386 26.4286 46.5 24.1556 46.5 21.3517V5.57692C46.5 2.77302 44.2386 0.5 41.449 0.5H5.55098Z" fill="#BB0C0C"/>
<path d="M10.0686 11.6932C10.0328 11.3297 9.87879 11.0472 9.60675 10.8459C9.33471 10.6446 8.96552 10.5439 8.49916 10.5439C8.18228 10.5439 7.91472 10.589 7.69649 10.6791C7.47826 10.7663 7.31085 10.888 7.19426 11.0442C7.08067 11.2005 7.02387 11.3777 7.02387 11.5761C7.01789 11.7413 7.05227 11.8856 7.127 12.0087C7.20473 12.1319 7.31085 12.2386 7.44538 12.3288C7.5799 12.4159 7.73536 12.4925 7.91173 12.5586C8.08811 12.6217 8.27645 12.6758 8.47674 12.7209L9.30183 12.9192C9.70242 13.0093 10.0701 13.1295 10.4049 13.2798C10.7398 13.43 11.0297 13.6148 11.2749 13.8342C11.52 14.0535 11.7098 14.3119 11.8444 14.6094C11.9819 14.9069 12.0521 15.2479 12.0551 15.6325C12.0521 16.1975 11.9086 16.6872 11.6246 17.1019C11.3436 17.5136 10.9371 17.8336 10.4049 18.0619C9.8758 18.2873 9.23756 18.4 8.49019 18.4C7.74881 18.4 7.10309 18.2858 6.55303 18.0574C6.00596 17.8291 5.57846 17.491 5.27055 17.0433C4.96563 16.5926 4.80569 16.0352 4.79074 15.3711H6.66962C6.69054 15.6806 6.77873 15.939 6.93418 16.1464C7.09262 16.3507 7.30338 16.5054 7.56645 16.6106C7.83251 16.7128 8.13295 16.7639 8.46777 16.7639C8.79661 16.7639 9.0821 16.7158 9.32425 16.6196C9.56939 16.5235 9.75922 16.3898 9.89374 16.2185C10.0283 16.0472 10.0955 15.8504 10.0955 15.628C10.0955 15.4207 10.0342 15.2464 9.91168 15.1052C9.7921 14.964 9.61572 14.8438 9.38254 14.7446C9.15236 14.6455 8.86985 14.5553 8.53503 14.4742L7.53506 14.2218C6.76079 14.0325 6.14945 13.7365 5.70103 13.3339C5.25261 12.9312 5.0299 12.3889 5.03289 11.7068C5.0299 11.1479 5.17788 10.6596 5.47682 10.2419C5.77876 9.82425 6.1928 9.49823 6.71894 9.26386C7.24508 9.02948 7.84298 8.91229 8.51261 8.91229C9.19421 8.91229 9.78911 9.02948 10.2973 9.26386C10.8085 9.49823 11.2061 9.82425 11.4901 10.2419C11.7741 10.6596 11.9206 11.1434 11.9296 11.6932H10.0686Z" fill="white"/>
<path d="M13.3611 18.2693V9.0385H16.9844C17.6809 9.0385 18.2743 9.17221 18.7646 9.43964C19.2548 9.70406 19.6285 10.0722 19.8856 10.5439C20.1457 11.0127 20.2757 11.5535 20.2757 12.1665C20.2757 12.7795 20.1442 13.3203 19.8811 13.7891C19.6181 14.2578 19.2369 14.6229 18.7377 14.8843C18.2414 15.1458 17.6405 15.2765 16.935 15.2765H15.3028V13.7125H16.6211C16.9948 13.7125 17.3027 13.6479 17.5449 13.5187C17.79 13.3865 17.9724 13.2047 18.0919 12.9733C18.2145 12.7389 18.2758 12.47 18.2758 12.1665C18.2758 11.86 18.2145 11.5926 18.0919 11.3642C17.9724 11.1328 17.79 10.9541 17.5449 10.8279C17.2997 10.6987 16.9888 10.634 16.6122 10.634H15.3028V18.2693H13.3611Z" fill="white"/>
<path d="M29.9761 13.6539C29.9761 14.6605 29.7863 15.5169 29.4067 16.223C29.03 16.9291 28.5158 17.4685 27.8641 17.8411C27.2154 18.2107 26.486 18.3955 25.6758 18.3955C24.8597 18.3955 24.1273 18.2092 23.4786 17.8366C22.8299 17.464 22.3172 16.9246 21.9405 16.2185C21.5638 15.5124 21.3755 14.6575 21.3755 13.6539C21.3755 12.6473 21.5638 11.7909 21.9405 11.0848C22.3172 10.3786 22.8299 9.84078 23.4786 9.47119C24.1273 9.09859 24.8597 8.91229 25.6758 8.91229C26.486 8.91229 27.2154 9.09859 27.8641 9.47119C28.5158 9.84078 29.03 10.3786 29.4067 11.0848C29.7863 11.7909 29.9761 12.6473 29.9761 13.6539ZM28.0076 13.6539C28.0076 13.0018 27.9104 12.452 27.7161 12.0042C27.5248 11.5565 27.2542 11.217 26.9045 10.9856C26.5547 10.7542 26.1452 10.6386 25.6758 10.6386C25.2065 10.6386 24.7969 10.7542 24.4471 10.9856C24.0974 11.217 23.8253 11.5565 23.631 12.0042C23.4397 12.452 23.344 13.0018 23.344 13.6539C23.344 14.3059 23.4397 14.8558 23.631 15.3035C23.8253 15.7512 24.0974 16.0908 24.4471 16.3222C24.7969 16.5535 25.2065 16.6692 25.6758 16.6692C26.1452 16.6692 26.5547 16.5535 26.9045 16.3222C27.2542 16.0908 27.5248 15.7512 27.7161 15.3035C27.9104 14.8558 28.0076 14.3059 28.0076 13.6539Z" fill="white"/>
<path d="M30.6454 10.6476V9.0385H38.1878V10.6476H35.3762V18.2693H33.457V10.6476H30.6454Z" fill="white"/>
<path d="M41.6765 9.0385L41.5016 15.5018H39.8604L39.681 9.0385H41.6765ZM40.681 18.3865C40.385 18.3865 40.1309 18.2813 39.9187 18.0709C39.7064 17.8576 39.6018 17.6022 39.6048 17.3047C39.6018 17.0103 39.7064 16.7578 39.9187 16.5475C40.1309 16.3372 40.385 16.232 40.681 16.232C40.965 16.232 41.2146 16.3372 41.4299 16.5475C41.6451 16.7578 41.7542 17.0103 41.7572 17.3047C41.7542 17.503 41.7019 17.6848 41.6003 17.8501C41.5016 18.0124 41.3716 18.1431 41.2101 18.2422C41.0487 18.3384 40.8723 18.3865 40.681 18.3865Z" fill="white"/>
</svg>
