<svg width="21" height="21" viewBox="0 0 21 21" fill="none" xmlns="http://www.w3.org/2000/svg">
<path d="M20.334 15.002C20.3335 16.3696 19.8661 17.696 19.009 18.7616C18.1519 19.8273 16.9566 20.5683 15.621 20.862L14.983 18.948C15.5672 18.8518 16.1228 18.6271 16.6098 18.2903C17.0967 17.9534 17.5029 17.5128 17.799 17H15.334C14.8036 17 14.2948 16.7893 13.9198 16.4142C13.5447 16.0391 13.334 15.5304 13.334 15V11C13.334 10.4696 13.5447 9.96086 13.9198 9.58579C14.2948 9.21071 14.8036 9 15.334 9H18.272C18.028 7.0669 17.0869 5.28927 15.6254 4.00068C14.1639 2.71208 12.2824 2.00108 10.334 2.00108C8.38554 2.00108 6.50405 2.71208 5.04256 4.00068C3.58106 5.28927 2.64002 7.0669 2.39598 9H5.33398C5.86442 9 6.37312 9.21071 6.7482 9.58579C7.12327 9.96086 7.33398 10.4696 7.33398 11V15C7.33398 15.5304 7.12327 16.0391 6.7482 16.4142C6.37312 16.7893 5.86442 17 5.33398 17H2.33398C1.80355 17 1.29484 16.7893 0.919771 16.4142C0.544698 16.0391 0.333984 15.5304 0.333984 15V10C0.333984 4.477 4.81098 0 10.334 0C15.857 0 20.334 4.477 20.334 10V15.002Z" fill="black"/>
</svg>
