<svg width="17" height="17" viewBox="0 0 17 17" fill="none" xmlns="http://www.w3.org/2000/svg">
<path d="M15.7662 1.84625H12.4062V0.56625C12.4062 0.47825 12.3343 0.40625 12.2463 0.40625H11.1263C11.0382 0.40625 10.9663 0.47825 10.9663 0.56625V1.84625H5.84625V0.56625C5.84625 0.47825 5.77425 0.40625 5.68625 0.40625H4.56625C4.47825 0.40625 4.40625 0.47825 4.40625 0.56625V1.84625H1.04625C0.69225 1.84625 0.40625 2.13225 0.40625 2.48625V15.7662C0.40625 16.1202 0.69225 16.4062 1.04625 16.4062H15.7662C16.1202 16.4062 16.4062 16.1202 16.4062 15.7662V2.48625C16.4062 2.13225 16.1202 1.84625 15.7662 1.84625ZM14.9663 14.9663H1.84625V7.36625H14.9663V14.9663ZM1.84625 6.00625V3.28625H4.40625V4.24625C4.40625 4.33425 4.47825 4.40625 4.56625 4.40625H5.68625C5.77425 4.40625 5.84625 4.33425 5.84625 4.24625V3.28625H10.9663V4.24625C10.9663 4.33425 11.0382 4.40625 11.1263 4.40625H12.2463C12.3343 4.40625 12.4062 4.33425 12.4062 4.24625V3.28625H14.9663V6.00625H1.84625Z" fill="black"/>
</svg>
