<svg width="91" height="92" viewBox="0 0 91 92" fill="none" xmlns="http://www.w3.org/2000/svg">
<g filter="url(#filter0_d_1097_4127)">
<path d="M49.9389 10.925C51.2808 9.42845 53.7364 9.92236 54.3953 11.8213C54.9613 13.4525 56.9158 14.1092 58.3519 13.1507C60.0238 12.0349 62.2794 13.124 62.4454 15.1272C62.5879 16.8479 64.3177 17.9701 65.9471 17.3988C67.8439 16.7339 69.7578 18.3497 69.4204 20.3311C69.1306 22.0333 70.5269 23.5504 72.2472 23.4023C74.2498 23.2299 75.7018 25.271 74.8822 27.1063C74.1781 28.6828 75.1533 30.4995 76.8564 30.7839C78.8389 31.115 79.7377 33.453 78.4874 35.0268C77.4134 36.3787 77.9062 38.3809 79.485 39.0799C81.3229 39.8936 81.612 42.3817 80.0096 43.5951C78.6332 44.6375 78.6126 46.6993 79.9679 47.7689C81.5457 49.0142 81.207 51.4959 79.3532 52.2728C77.7607 52.9401 77.228 54.932 78.2748 56.3051C79.4934 57.9036 78.5481 60.2232 76.5593 60.5145C74.8509 60.7649 73.8396 62.5617 74.512 64.152C75.2948 66.0033 73.8023 68.0149 71.8036 67.8026C70.0866 67.6202 68.6602 69.1091 68.916 70.8166C69.2137 72.8045 67.2679 74.3817 65.3848 73.679C63.7671 73.0753 62.0152 74.1627 61.8383 75.8802C61.6324 77.8796 59.3554 78.9234 57.7062 77.7744C56.2895 76.7874 54.3223 77.405 53.7238 79.0246C53.0271 80.91 50.5621 81.3547 49.2504 79.8317C48.1237 78.5234 46.0646 78.6323 45.0822 80.0521C43.9385 81.705 41.4404 81.5228 40.5487 79.7214C39.7827 78.174 37.7613 77.7674 36.4566 78.8983C34.9377 80.2149 32.5634 79.4171 32.1477 77.4505C31.7906 75.7612 29.9338 74.8647 28.3889 75.6357C26.5904 76.5331 24.489 75.1699 24.5754 73.1618C24.6497 71.4368 23.0741 70.1067 21.386 70.4692C19.4208 70.8912 17.7245 69.0482 18.3076 67.1246C18.8085 65.4723 17.6133 63.7921 15.888 63.7234C13.8796 63.6434 12.6949 61.4365 13.7381 59.7184C14.6342 58.2425 13.8943 56.3179 12.2404 55.8223C10.3149 55.2454 9.7163 52.8132 11.154 51.4085C12.3889 50.2018 12.151 48.1537 10.6722 47.2623C8.95077 46.2247 8.9758 43.72 10.7176 42.717C12.2139 41.8553 12.4928 39.8124 11.2821 38.5813C9.87282 37.1481 10.5199 34.7283 12.4565 34.19C14.12 33.7275 14.8982 31.8181 14.0318 30.3246C13.0232 28.586 14.2517 26.4032 16.2613 26.3634C17.9876 26.3291 19.2162 24.6732 18.7484 23.0112C18.2038 21.0763 19.9366 19.2676 21.893 19.7288C23.5736 20.125 25.1753 18.8266 25.1356 17.1005C25.0893 15.091 27.2175 13.7701 28.9977 14.7033C30.5269 15.5049 32.4013 14.6457 32.7921 12.9639C33.247 11.006 35.6368 10.2559 37.129 11.6025C38.4108 12.7593 40.44 12.3932 41.2367 10.8613C42.1642 9.07814 44.6655 8.94585 45.7759 10.6213C46.7298 12.0605 48.7863 12.2105 49.9389 10.925Z" fill="#318D36"/>
<path d="M12.1887 33.2265L12.4565 34.19L12.1887 33.2265C9.51801 33.969 8.62557 37.306 10.5691 39.2824C11.3208 40.0468 11.1477 41.3154 10.2186 41.8504C7.81649 43.2336 7.78198 46.6878 10.156 48.1188C11.0742 48.6722 11.2219 49.944 10.4551 50.6932C8.47245 52.6304 9.29803 55.9846 11.9533 56.7802C12.9803 57.088 13.4397 58.283 12.8833 59.1994C11.4447 61.5688 13.0785 64.6123 15.8482 64.7226C16.9195 64.7653 17.6616 65.8085 17.3506 66.8345C16.5464 69.4873 18.8858 72.0288 21.596 71.4469C22.6442 71.2218 23.6224 72.0477 23.5763 73.1188C23.4572 75.8882 26.3551 77.7681 28.8354 76.5305C29.7947 76.0518 30.9476 76.6084 31.1693 77.6574C31.7426 80.3694 35.017 81.4696 37.1116 79.654C37.9217 78.9517 39.1768 79.2042 39.6524 80.165C40.8822 82.6493 44.3273 82.9006 45.9045 80.6211C46.5146 79.7395 47.7931 79.6719 48.4927 80.4842C50.3016 82.5846 53.701 81.9713 54.6618 79.3712C55.0334 78.3655 56.2549 77.9821 57.1346 78.595C59.409 80.1795 62.5491 78.74 62.8331 75.9827C62.9429 74.9162 64.0307 74.241 65.0351 74.6159C67.6321 75.585 70.3156 73.4099 69.9049 70.6685C69.7461 69.6082 70.6318 68.6837 71.6979 68.797C74.4543 69.0898 76.5126 66.3157 75.4331 63.7626C75.0155 62.7751 75.6435 61.6594 76.7043 61.504C79.4469 61.1021 80.7506 57.9033 79.0701 55.6988C78.4201 54.8462 78.7509 53.6094 79.7397 53.1951C82.2962 52.1238 82.7634 48.7012 80.5874 46.9839C79.7459 46.3198 79.7586 45.0395 80.6133 44.3923C82.8231 42.7189 82.4245 39.2877 79.8898 38.1655C78.9095 37.7315 78.6035 36.4883 79.2704 35.6488C80.9946 33.4784 79.7552 30.2541 77.0211 29.7976C75.9636 29.621 75.3581 28.4929 75.7953 27.514C76.9255 24.983 74.9232 22.1683 72.1615 22.406C71.0933 22.4979 70.2262 21.5559 70.4062 20.499C70.8716 17.7664 68.2321 15.5381 65.6163 16.4551C64.6045 16.8098 63.5305 16.113 63.442 15.0446C63.2131 12.2821 60.1024 10.7802 57.7968 12.319C56.9051 12.9141 55.6915 12.5064 55.34 11.4935C54.4314 8.87472 51.0449 8.19358 49.1944 10.2574C48.4787 11.0556 47.2018 10.9625 46.6095 10.0688C45.0781 7.75829 41.6286 7.94073 40.3495 10.3999C39.8548 11.351 38.5949 11.5784 37.7989 10.8601C35.7411 9.00299 32.4453 10.0375 31.818 12.7376C31.5754 13.7818 30.4115 14.3154 29.462 13.8176C27.0069 12.5306 24.072 14.3523 24.1358 17.1235C24.1605 18.1953 23.1659 19.0015 22.1224 18.7555C19.4245 18.1195 17.0348 20.6138 17.7858 23.2821C18.0762 24.3141 17.3134 25.3423 16.2415 25.3636C13.4701 25.4185 11.7758 28.4287 13.1668 30.8264C13.7048 31.7538 13.2216 32.9394 12.1887 33.2265Z" stroke="white" stroke-width="2"/>
</g>
<path d="M17.0676 48.377C16.7068 48.3044 16.3952 48.1765 16.1329 47.9931C15.8769 47.8056 15.6904 47.5832 15.5735 47.3257C15.4577 47.0631 15.4272 46.7822 15.4819 46.4831L16.2426 46.6361C16.2173 46.8976 16.2782 47.1356 16.4254 47.3502C16.579 47.5606 16.8335 47.7015 17.189 47.7731C17.5289 47.8414 17.8124 47.8114 18.0395 47.683C18.2729 47.5504 18.4164 47.3508 18.47 47.0841C18.5121 46.875 18.4888 46.6935 18.4 46.5396C18.3113 46.3858 18.1875 46.2575 18.0286 46.1548C17.8697 46.0522 17.6518 45.9322 17.3748 45.7948C17.0329 45.6282 16.7617 45.4757 16.561 45.3374C16.3655 45.2002 16.2094 45.0164 16.0925 44.7862C15.9819 44.5518 15.9607 44.2646 16.0291 43.9248C16.089 43.6267 16.218 43.378 16.4159 43.1784C16.6138 42.9788 16.8613 42.8436 17.1584 42.7728C17.4608 42.7031 17.7897 42.704 18.1453 42.7755C18.6577 42.8786 19.0502 43.0908 19.3228 43.4122C19.6007 43.7347 19.718 44.1118 19.6746 44.5438L18.8903 44.386C18.9062 44.1716 18.8332 43.9665 18.6713 43.7708C18.5105 43.5698 18.2706 43.4372 17.9516 43.373C17.6536 43.3131 17.3947 43.3426 17.1749 43.4616C16.9562 43.5754 16.819 43.7708 16.7632 44.048C16.7233 44.2466 16.7456 44.4198 16.8301 44.5673C16.9199 44.716 17.039 44.8406 17.1874 44.9411C17.3421 45.0375 17.5601 45.1575 17.8413 45.3011C18.1821 45.473 18.4523 45.6308 18.6519 45.7743C18.8526 45.9126 19.0108 46.0994 19.1267 46.3349C19.2436 46.5651 19.2673 46.8528 19.1979 47.1979C19.1443 47.4645 19.0232 47.7013 18.8347 47.9082C18.6462 48.1151 18.3987 48.2639 18.0921 48.3546C17.7855 48.4452 17.444 48.4527 17.0676 48.377ZM21.3219 43.9775C21.186 43.9501 21.0804 43.88 21.0052 43.7669C20.9301 43.6539 20.9061 43.5294 20.9335 43.3934C20.9608 43.2575 21.031 43.1519 21.1441 43.0767C21.2571 43.0015 21.3816 42.9776 21.5175 43.005C21.6483 43.0313 21.7486 43.1004 21.8185 43.2124C21.8937 43.3254 21.9177 43.4499 21.8903 43.5859C21.863 43.7218 21.7928 43.8274 21.6797 43.9026C21.5719 43.9788 21.4526 44.0038 21.3219 43.9775ZM21.5266 44.7449L20.6622 49.0428L19.9485 48.8993L20.8129 44.6014L21.5266 44.7449ZM24.8529 45.3323C25.3757 45.4375 25.7672 45.6822 26.0272 46.0663C26.2883 46.4452 26.3588 46.9327 26.239 47.5288L25.7294 50.0621L25.0236 49.9201L25.5126 47.4888C25.5988 47.06 25.5574 46.7117 25.3882 46.4437C25.2201 46.1705 24.9504 45.9966 24.5792 45.922C24.2028 45.8462 23.8784 45.9034 23.6063 46.0935C23.3394 46.2846 23.1607 46.605 23.0702 47.0546L22.5923 49.4311L21.8785 49.2875L22.743 44.9896L23.4567 45.1331L23.3337 45.7449C23.519 45.5537 23.744 45.4221 24.0087 45.3502C24.2787 45.2794 24.56 45.2734 24.8529 45.3323ZM29.1534 48.5067C29.2427 48.0622 29.4095 47.6932 29.6535 47.3995C29.8986 47.1007 30.1964 46.8913 30.5469 46.7714C30.9026 46.6525 31.2844 46.6341 31.6923 46.7161C32.2204 46.8224 32.6286 47.0378 32.9169 47.3623C33.2105 47.6879 33.3664 48.0892 33.3847 48.5662L32.6161 48.4116C32.5955 48.1354 32.4932 47.9 32.3093 47.7052C32.1307 47.5116 31.8845 47.3832 31.5708 47.3201C31.163 47.238 30.8052 47.3129 30.4974 47.5448C30.1907 47.7714 29.9858 48.141 29.8827 48.6534C29.7786 49.171 29.8237 49.5962 30.0178 49.9291C30.212 50.2619 30.513 50.4693 30.9209 50.5513C31.2346 50.6144 31.5107 50.5938 31.7493 50.4895C31.9879 50.3852 32.1738 50.2049 32.3069 49.9488L33.0755 50.1034C32.8721 50.5195 32.5711 50.8261 32.1724 51.0234C31.7747 51.2154 31.317 51.2594 30.7994 51.1552C30.3916 51.0732 30.0466 50.9086 29.7645 50.6615C29.4875 50.4154 29.2939 50.1071 29.1834 49.7367C29.0729 49.3664 29.0629 48.9563 29.1534 48.5067ZM35.6104 52.1229C35.2078 52.0419 34.8602 51.8768 34.5676 51.6276C34.2803 51.3794 34.0761 51.069 33.9552 50.6965C33.8406 50.3199 33.8279 49.9093 33.9173 49.4649C34.0057 49.0257 34.1776 48.6577 34.4331 48.3609C34.6949 48.06 35.0084 47.8537 35.3736 47.7422C35.7398 47.6255 36.1268 47.6081 36.5347 47.6901C36.9425 47.7722 37.2927 47.9378 37.5853 48.1871C37.8789 48.4311 38.0862 48.7393 38.2072 49.1118C38.3333 49.4854 38.3517 49.8944 38.2623 50.3388C38.1729 50.7832 37.9947 51.1554 37.7276 51.4553C37.4669 51.751 37.1508 51.9567 36.7793 52.0724C36.4079 52.1881 36.0183 52.2049 35.6104 52.1229ZM35.7366 51.4955C35.9928 51.547 36.2454 51.5353 36.4945 51.4602C36.7435 51.3852 36.9602 51.2411 37.1445 51.0279C37.334 50.8158 37.4635 50.5372 37.5329 50.1921C37.6023 49.847 37.5932 49.5405 37.5057 49.2727C37.4181 49.0048 37.2761 48.7913 37.0796 48.6321C36.8842 48.4677 36.6584 48.3597 36.4022 48.3081C36.1408 48.2556 35.8882 48.2673 35.6444 48.3434C35.4069 48.4153 35.1986 48.5584 35.0195 48.7726C34.8404 48.9868 34.7161 49.2665 34.6467 49.6116C34.5762 49.9619 34.5796 50.2699 34.6567 50.5357C34.739 50.8025 34.8753 51.0176 35.0655 51.181C35.2567 51.3391 35.4804 51.4439 35.7366 51.4955ZM44.8156 49.3476C45.1502 49.4149 45.4341 49.5454 45.6671 49.7392C45.9012 49.9277 46.0662 50.1758 46.1621 50.4834C46.258 50.791 46.266 51.1435 46.186 51.5409L45.6765 54.0741L44.9706 53.9321L45.4597 51.5008C45.5459 51.0721 45.5044 50.7237 45.3353 50.4558C45.1724 50.1837 44.9106 50.0113 44.5498 49.9388C44.1786 49.8641 43.859 49.9249 43.591 50.1213C43.3241 50.3124 43.1454 50.6328 43.055 51.0824L42.5785 53.451L41.8727 53.309L42.3617 50.8777C42.4479 50.449 42.4065 50.1006 42.2373 49.8327C42.0745 49.5606 41.8126 49.3882 41.4519 49.3156C41.0806 49.241 40.761 49.3018 40.493 49.4982C40.2261 49.6893 40.0474 50.0097 39.957 50.4593L39.4806 52.8279L38.7669 52.6843L39.6313 48.3864L40.3451 48.53L40.2204 49.1496C40.4068 48.9531 40.6298 48.8184 40.8892 48.7455C41.1539 48.6736 41.4301 48.6666 41.7177 48.7245C42.0784 48.797 42.3811 48.9422 42.6256 49.16C42.8701 49.3779 43.0288 49.6573 43.1016 49.9984C43.2829 49.7193 43.5289 49.524 43.8397 49.4124C44.1504 49.3008 44.4758 49.2792 44.8156 49.3476ZM48.2207 49.3878C48.0848 49.3604 47.9792 49.2903 47.904 49.1772C47.8288 49.0642 47.8049 48.9397 47.8323 48.8037C47.8596 48.6678 47.9298 48.5622 48.0428 48.487C48.1559 48.4118 48.2804 48.3879 48.4163 48.4153C48.547 48.4416 48.6474 48.5107 48.7173 48.6227C48.7925 48.7357 48.8164 48.8602 48.7891 48.9962C48.7618 49.1321 48.6916 49.2377 48.5785 49.3129C48.4707 49.3891 48.3514 49.4141 48.2207 49.3878ZM48.4254 50.1552L47.561 54.4531L46.8472 54.3096L47.7117 50.0117L48.4254 50.1552ZM50.2847 55.0744C49.9553 55.0082 49.6709 54.8939 49.4315 54.7315C49.1933 54.5639 49.0183 54.3655 48.9066 54.1363C48.796 53.9019 48.7591 53.6524 48.796 53.3878L49.5333 53.5361C49.5111 53.7546 49.5752 53.9498 49.7256 54.1215C49.8813 54.2942 50.1055 54.41 50.3983 54.4689C50.6702 54.5236 50.8967 54.5066 51.0777 54.4179C51.2587 54.3292 51.3677 54.1933 51.4045 54.0103C51.4423 53.8221 51.3866 53.6667 51.2371 53.5442C51.0887 53.4164 50.8483 53.2729 50.5159 53.1135C50.2138 52.9657 49.9692 52.8295 49.7821 52.7048C49.6013 52.5759 49.4545 52.4131 49.3417 52.2164C49.2353 52.0154 49.2099 51.7764 49.2656 51.4993C49.3098 51.2797 49.4156 51.0915 49.5832 50.9348C49.7507 50.7781 49.9652 50.6717 50.2268 50.6155C50.4894 50.554 50.7749 50.5543 51.0834 50.6164C51.5592 50.7121 51.9193 50.9097 52.1638 51.2091C52.4082 51.5085 52.4988 51.8694 52.4356 52.2919L51.7219 52.1484C51.7514 51.9204 51.6962 51.7216 51.5562 51.552C51.4215 51.3834 51.2155 51.2713 50.9384 51.2156C50.6822 51.164 50.4673 51.1779 50.2935 51.2572C50.1198 51.3365 50.0151 51.4651 49.9793 51.6428C49.9509 51.784 49.9717 51.9106 50.0417 52.0226C50.1179 52.1304 50.2182 52.2267 50.3426 52.3116C50.4733 52.3923 50.6546 52.4913 50.8867 52.6087C51.1784 52.7544 51.4125 52.8886 51.5891 53.0111C51.7668 53.1285 51.9073 53.2819 52.0107 53.4713C52.1192 53.6618 52.1499 53.8883 52.1025 54.1507C52.0552 54.386 51.9472 54.5846 51.7787 54.7466C51.6101 54.9085 51.3945 55.0202 51.1319 55.0816C50.8756 55.1389 50.5932 55.1365 50.2847 55.0744ZM54.2484 50.6002C54.1125 50.5728 54.0069 50.5026 53.9317 50.3896C53.8566 50.2766 53.8326 50.1521 53.86 50.0161C53.8873 49.8802 53.9575 49.7746 54.0706 49.6994C54.1836 49.6242 54.3081 49.6003 54.4441 49.6277C54.5748 49.6539 54.6751 49.7231 54.7451 49.8351C54.8202 49.9481 54.8442 50.0726 54.8168 50.2086C54.7895 50.3445 54.7193 50.4501 54.6062 50.5253C54.4984 50.6015 54.3792 50.6265 54.2484 50.6002ZM54.4531 51.3676L53.5887 55.6655L52.875 55.522L53.7394 51.2241L54.4531 51.3676ZM56.6653 56.3578C56.2627 56.2768 55.9151 56.1117 55.6225 55.8624C55.3352 55.6142 55.131 55.3039 55.0101 54.9314C54.8954 54.5547 54.8828 54.1442 54.9722 53.6998C55.0605 53.2605 55.2325 52.8926 55.488 52.5958C55.7498 52.2948 56.0633 52.0886 56.4285 51.9771C56.7947 51.8603 57.1817 51.843 57.5896 51.925C57.9974 52.007 58.3476 52.1727 58.6402 52.4219C58.9338 52.666 59.1411 52.9742 59.2621 53.3467C59.3882 53.7203 59.4066 54.1293 59.3172 54.5737C59.2278 55.0181 59.0496 55.3903 58.7825 55.6902C58.5218 55.9859 58.2057 56.1916 57.8342 56.3073C57.4628 56.423 57.0732 56.4398 56.6653 56.3578ZM56.7915 55.7304C57.0477 55.7819 57.3003 55.7701 57.5494 55.6951C57.7984 55.6201 58.015 55.476 58.1994 55.2628C58.3889 55.0507 58.5184 54.7721 58.5878 54.427C58.6572 54.0819 58.6481 53.7754 58.5606 53.5076C58.473 53.2397 58.331 53.0262 58.1345 52.867C57.9391 52.7025 57.7133 52.5946 57.4571 52.543C57.1957 52.4904 56.943 52.5022 56.6993 52.5783C56.4617 52.6502 56.2534 52.7933 56.0744 53.0075C55.8953 53.2217 55.771 53.5014 55.7016 53.8465C55.6311 54.1968 55.6345 54.5048 55.7116 54.7706C55.7939 55.0374 55.9302 55.2525 56.1204 55.4158C56.3116 55.574 56.5353 55.6788 56.7915 55.7304ZM62.7961 52.9641C63.3189 53.0692 63.7104 53.3139 63.9704 53.698C64.2315 54.077 64.3021 54.5645 64.1822 55.1605L63.6727 57.6938L62.9668 57.5518L63.4558 55.1205C63.542 54.6918 63.5006 54.3434 63.3314 54.0755C63.1633 53.8023 62.8937 53.6284 62.5224 53.5537C62.146 53.478 61.8217 53.5351 61.5495 53.7252C61.2826 53.9163 61.1039 54.2367 61.0135 54.6864L60.5355 57.0628L59.8218 56.9192L60.6862 52.6213L61.3999 52.7649L61.2769 53.3766C61.4622 53.1854 61.6873 53.0539 61.952 52.982C62.2219 52.9111 62.5033 52.9052 62.7961 52.9641ZM69.2253 56.4034C69.198 56.5393 69.1612 56.6815 69.115 56.83L65.6798 56.139C65.6208 56.5678 65.6978 56.9288 65.9108 57.2219C66.1302 57.5108 66.4281 57.6931 66.8045 57.7688C67.113 57.8309 67.3834 57.8118 67.6157 57.7117C67.8543 57.6073 68.0396 57.4433 68.1717 57.2196L68.9403 57.3742C68.7422 57.7641 68.4443 58.0551 68.0466 58.2471C67.65 58.4339 67.1955 58.4758 66.6831 58.3727C66.2752 58.2907 65.9276 58.1256 65.6403 57.8774C65.3581 57.6302 65.1592 57.3209 65.0435 56.9495C64.9289 56.5728 64.9163 56.1623 65.0056 55.7178C65.095 55.2734 65.2623 54.9017 65.5073 54.6029C65.7524 54.304 66.0523 54.0977 66.407 53.9841C66.768 53.8663 67.1576 53.8495 67.5759 53.9336C67.9838 54.0157 68.3267 54.1771 68.6046 54.418C68.8826 54.6589 69.0737 54.953 69.1779 55.3003C69.2884 55.6435 69.3042 56.0112 69.2253 56.4034ZM68.5181 56.1061C68.5727 55.8342 68.5594 55.5894 68.4781 55.3718C68.3978 55.1489 68.263 54.9667 68.0739 54.8253C67.891 54.6797 67.6741 54.5817 67.4231 54.5312C67.0623 54.4587 66.7307 54.5116 66.4282 54.6902C66.131 54.8697 65.923 55.1598 65.8044 55.5602L68.5181 56.1061ZM71.2094 59.2831C70.88 59.2169 70.5956 59.1025 70.3562 58.9402C70.1179 58.7726 69.943 58.5742 69.8313 58.345C69.7207 58.1106 69.6838 57.8611 69.7207 57.5965L70.458 57.7447C70.4357 57.9633 70.4999 58.1585 70.6503 58.3302C70.8059 58.5029 71.0302 58.6187 71.323 58.6776C71.5949 58.7323 71.8213 58.7153 72.0024 58.6266C72.1834 58.5379 72.2924 58.402 72.3292 58.219C72.367 58.0308 72.3112 57.8754 72.1618 57.7529C72.0134 57.6251 71.773 57.4816 71.4406 57.3222C71.1384 57.1744 70.8938 57.0382 70.7067 56.9135C70.5259 56.7846 70.3792 56.6218 70.2664 56.4251C70.1599 56.2241 70.1346 55.9851 70.1903 55.708C70.2345 55.4884 70.3403 55.3002 70.5079 55.1435C70.6754 54.9868 70.8899 54.8804 71.1515 54.8242C71.4141 54.7627 71.6996 54.763 72.0081 54.8251C72.4839 54.9208 72.844 55.1184 73.0884 55.4178C73.3329 55.7172 73.4235 56.0781 73.3603 56.5006L72.6466 56.3571C72.6761 56.1291 72.6209 55.9303 72.4809 55.7607C72.3462 55.5921 72.1402 55.48 71.8631 55.4243C71.6069 55.3727 71.3919 55.3866 71.2182 55.4659C71.0445 55.5452 70.9398 55.6738 70.904 55.8515C70.8756 55.9927 70.8964 56.1193 70.9664 56.2313C71.0426 56.3391 71.1429 56.4354 71.2673 56.5203C71.3979 56.601 71.5793 56.7 71.8114 56.8174C72.103 56.9631 72.3372 57.0973 72.5138 57.2198C72.6915 57.3372 72.832 57.4906 72.9354 57.68C73.0439 57.8705 73.0745 58.097 73.0272 58.3594C72.9799 58.5947 72.8719 58.7933 72.7033 58.9553C72.5348 59.1172 72.3192 59.2289 72.0566 59.2903C71.8003 59.3476 71.5178 59.3452 71.2094 59.2831Z" fill="white"/>
<path d="M23.4525 32.9916C23.6527 32.1587 24.0573 31.5669 24.6664 31.2161C25.2756 30.8653 26.0232 30.7791 26.9095 30.9573C27.4977 31.0756 27.9792 31.2786 28.3538 31.5661C28.7363 31.8552 28.998 32.1975 29.1387 32.593C29.2873 32.9901 29.3175 33.4083 29.2291 33.8475C29.125 34.3651 28.9104 34.7626 28.5854 35.04C28.2619 35.3095 27.9157 35.4683 27.547 35.5166L27.5375 35.5636C27.9546 35.8025 28.2578 36.1206 28.4473 36.5177C28.6367 36.9149 28.6769 37.384 28.5681 37.9252C28.4703 38.4115 28.2698 38.8199 27.9666 39.1507C27.6729 39.4751 27.289 39.6998 26.8151 39.8248C26.349 39.9514 25.8218 39.9555 25.2336 39.8372C24.2924 39.6479 23.5861 39.2651 23.1144 38.6888C22.6507 38.1141 22.497 37.3569 22.6533 36.4173L24.6062 36.8101C24.5446 37.1567 24.5874 37.451 24.7347 37.6927C24.8835 37.9267 25.1382 38.0799 25.499 38.1525C25.8049 38.214 26.0575 38.1751 26.2569 38.0356C26.4658 37.89 26.5994 37.672 26.6577 37.3818C26.7334 37.0054 26.6663 36.7103 26.4563 36.4967C26.2557 36.2769 25.8927 36.1141 25.3672 36.0084L24.9908 35.9327L25.3197 34.2974L25.6961 34.3731C26.0961 34.4536 26.4311 34.4516 26.701 34.3672C26.9804 34.2765 27.1556 34.0547 27.2266 33.7017C27.2833 33.4194 27.2491 33.184 27.1238 32.9956C26.9985 32.8072 26.7986 32.6854 26.5241 32.6302C26.226 32.5702 25.9844 32.6155 25.7991 32.7659C25.6216 32.9179 25.4943 33.1248 25.4171 33.3868L23.4525 32.9916ZM42.9718 34.7388L41.3107 42.9975L39.299 42.5928L40.2952 37.64L37.452 42.2213L35.8285 41.8948L34.9683 36.5563L33.9697 41.5209L31.958 41.1163L33.6191 32.8577L35.9955 33.3357L37.1631 39.5193L40.6071 34.2632L42.9718 34.7388ZM46.106 37.0462L45.77 38.7167L48.464 39.2586L48.1517 40.8115L45.4576 40.2696L45.0932 42.0813L48.1402 42.6942L47.816 44.3059L42.7573 43.2884L44.4184 35.0298L49.4771 36.0473L49.153 37.659L46.106 37.0462ZM52.0937 45.252C51.4898 45.1305 50.9683 44.9236 50.5293 44.6313C50.0903 44.339 49.7644 43.9715 49.5515 43.5289C49.3465 43.0878 49.2905 42.5951 49.3837 42.0507L51.5248 42.4814C51.4947 42.7936 51.5532 43.0502 51.7005 43.2512C51.8493 43.4443 52.0688 43.57 52.359 43.6284C52.657 43.6884 52.9057 43.669 53.1051 43.5704C53.306 43.4639 53.431 43.2891 53.4799 43.046C53.5209 42.8421 53.4842 42.6593 53.3698 42.4975C53.2633 42.3374 53.1168 42.1937 52.9302 42.0664C52.7515 41.9407 52.4889 41.7859 52.1424 41.6019C51.6422 41.3299 51.24 41.0777 50.9359 40.8452C50.6318 40.6126 50.3905 40.3111 50.212 39.9407C50.0336 39.5702 49.9964 39.1261 50.1005 38.6085C50.2551 37.8399 50.6542 37.2959 51.2978 36.9766C51.943 36.6494 52.7127 36.5757 53.6067 36.7555C54.5165 36.9385 55.2057 37.3056 55.6742 37.8568C56.1443 38.4002 56.3208 39.064 56.2039 39.8484L54.0275 39.4106C54.0654 39.1408 54.0092 38.9132 53.8588 38.7279C53.7099 38.5348 53.4943 38.4098 53.212 38.353C52.9689 38.3041 52.7594 38.3314 52.5835 38.4347C52.4093 38.5302 52.2977 38.6996 52.2488 38.9427C52.1952 39.2093 52.2789 39.4424 52.4999 39.6419C52.7209 39.8414 53.0807 40.0811 53.5793 40.3609C54.0763 40.6485 54.473 40.9078 54.7692 41.1388C55.0734 41.3713 55.3154 41.6689 55.4955 42.0315C55.6755 42.3942 55.7158 42.8225 55.6164 43.3166C55.5218 43.7872 55.3143 44.1902 54.9938 44.5256C54.6812 44.8626 54.2746 45.099 53.774 45.235C53.2734 45.3709 52.7132 45.3766 52.0937 45.252ZM59.7086 39.7821L59.3726 41.4527L62.0666 41.9945L61.7543 43.5474L59.0602 43.0056L58.6958 44.8173L61.7428 45.4301L61.4186 47.0419L56.3599 46.0244L58.021 37.7658L63.0797 38.7833L62.7555 40.395L59.7086 39.7821ZM65.6962 47.9879C65.0923 47.8665 64.5709 47.6596 64.1319 47.3673C63.6929 47.075 63.367 46.7075 63.1541 46.2648C62.949 45.8237 62.8931 45.331 62.9863 44.7867L65.1274 45.2174C65.0972 45.5295 65.1558 45.7861 65.303 45.9871C65.4519 46.1803 65.6714 46.306 65.9616 46.3644C66.2596 46.4243 66.5083 46.405 66.7077 46.3064C66.9086 46.1999 67.0335 46.0251 67.0824 45.782C67.1235 45.578 67.0868 45.3952 66.9724 45.2335C66.8659 45.0734 66.7194 44.9296 66.5328 44.8023C66.3541 44.6766 66.0915 44.5218 65.7449 44.3379C65.2447 44.0659 64.8426 43.8136 64.5385 43.5811C64.2343 43.3486 63.9931 43.0471 63.8146 42.6766C63.6362 42.3062 63.599 41.8621 63.7031 41.3445C63.8577 40.5759 64.2568 40.0319 64.9004 39.7125C65.5456 39.3853 66.3152 39.3116 67.2093 39.4915C68.1191 39.6745 68.8083 40.0416 69.2768 40.5928C69.7468 41.1361 69.9234 41.8 69.8065 42.5843L67.63 42.1466C67.668 41.8767 67.6118 41.6492 67.4613 41.4639C67.3125 41.2708 67.0969 41.1458 66.8146 41.089C66.5714 41.0401 66.362 41.0673 66.1861 41.1707C66.0119 41.2662 65.9003 41.4355 65.8514 41.6786C65.7978 41.9453 65.8814 42.1784 66.1024 42.3779C66.3234 42.5774 66.6832 42.817 67.1819 43.0968C67.6789 43.3845 68.0756 43.6438 68.3718 43.8748C68.6759 44.1073 68.918 44.4049 69.0981 44.7675C69.2781 45.1301 69.3184 45.5585 69.219 46.0526C69.1244 46.5232 68.9168 46.9261 68.5964 47.2615C68.2838 47.5985 67.8772 47.835 67.3766 47.9709C66.8759 48.1069 66.3158 48.1126 65.6962 47.9879Z" fill="white"/>
<defs>
<filter id="filter0_d_1097_4127" x="3.396" y="7.44141" width="83.6597" height="83.748" filterUnits="userSpaceOnUse" color-interpolation-filters="sRGB">
<feFlood flood-opacity="0" result="BackgroundImageFix"/>
<feColorMatrix in="SourceAlpha" type="matrix" values="0 0 0 0 0 0 0 0 0 0 0 0 0 0 0 0 0 0 127 0" result="hardAlpha"/>
<feOffset dy="4"/>
<feGaussianBlur stdDeviation="2"/>
<feComposite in2="hardAlpha" operator="out"/>
<feColorMatrix type="matrix" values="0 0 0 0 0 0 0 0 0 0 0 0 0 0 0 0 0 0 0.25 0"/>
<feBlend mode="normal" in2="BackgroundImageFix" result="effect1_dropShadow_1097_4127"/>
<feBlend mode="normal" in="SourceGraphic" in2="effect1_dropShadow_1097_4127" result="shape"/>
</filter>
</defs>
</svg>
