<?xml version="1.0" encoding="utf-8"?>
<!-- Generator: Adobe Illustrator 26.2.1, SVG Export Plug-In . SVG Version: 6.00 Build 0)  -->
<svg version="1.1" id="Capa_1" xmlns="http://www.w3.org/2000/svg" xmlns:xlink="http://www.w3.org/1999/xlink" x="0px" y="0px"
	 viewBox="0 0 44 44" style="enable-background:new 0 0 44 44;" xml:space="preserve">
<style type="text/css">
	.st0{clip-path:url(#SVGID_00000170268086426423859970000006494541976075208076_);}
	.st1{fill:#FFFFFF;}
	.st2{clip-path:url(#SVGID_00000054234076129467124530000004631197073953182616_);}
	.st3{fill:url(#SVGID_00000090983569030244190890000017027429364207657918_);}
	.st4{opacity:0.6;fill:url(#SVGID_00000112597376263327509930000009981943679366318268_);enable-background:new    ;}
	.st5{opacity:0.7;fill:url(#SVGID_00000061433463891750815880000001405316046664324538_);enable-background:new    ;}
	.st6{opacity:0.9;fill:url(#SVGID_00000044159121270347590240000009191134120597260953_);enable-background:new    ;}
</style>
<g>
	<g>
		<g>
			<defs>
				<path id="SVGID_1_" d="M22,0L22,0c12.2,0,22,9.8,22,22l0,0c0,12.2-9.8,22-22,22l0,0C9.8,44,0,34.2,0,22l0,0C0,9.8,9.8,0,22,0z"
					/>
			</defs>
			<clipPath id="SVGID_00000011023408569651545120000015407300056577620632_">
				<use xlink:href="#SVGID_1_"  style="overflow:visible;"/>
			</clipPath>
			<g style="clip-path:url(#SVGID_00000011023408569651545120000015407300056577620632_);">
				<path class="st1" d="M22,0L22,0c12.2,0,22,9.8,22,22l0,0c0,12.2-9.8,22-22,22l0,0C9.8,44,0,34.2,0,22l0,0C0,9.8,9.8,0,22,0z"/>
				<g>
					<g>
						<g>
							<defs>
								<rect id="SVGID_00000134209828644832247430000010547570872798191024_" y="0" width="44" height="44"/>
							</defs>
							<clipPath id="SVGID_00000172428105635975472050000010074946207465390218_">
								<use xlink:href="#SVGID_00000134209828644832247430000010547570872798191024_"  style="overflow:visible;"/>
							</clipPath>
							<g style="clip-path:url(#SVGID_00000172428105635975472050000010074946207465390218_);">
								<g>
									<path class="st1" d="M44,0H0v44h44V0z"/>
									
										<linearGradient id="SVGID_00000181766462818827761440000015933415152489064887_" gradientUnits="userSpaceOnUse" x1="44.0021" y1="-798.1079" x2="-2.085590e-03" y2="-754.1121" gradientTransform="matrix(1 0 0 -1 0 -754.11)">
										<stop  offset="0" style="stop-color:#132F47"/>
										<stop  offset="0.5365" style="stop-color:#286095"/>
										<stop  offset="1" style="stop-color:#3582C9"/>
									</linearGradient>
									<path style="fill:url(#SVGID_00000181766462818827761440000015933415152489064887_);" d="M44,0H0v44h44V0z"/>
									
										<linearGradient id="SVGID_00000076601665734438221190000000741574961623162769_" gradientUnits="userSpaceOnUse" x1="39.1893" y1="-773.0641" x2="-21.1734" y2="-754.7357" gradientTransform="matrix(1 0 0 -1 0 -754.11)">
										<stop  offset="0" style="stop-color:#FFFFFF;stop-opacity:0.6"/>
										<stop  offset="1" style="stop-color:#FFFFFF;stop-opacity:0"/>
									</linearGradient>
									
										<path style="opacity:0.6;fill:url(#SVGID_00000076601665734438221190000000741574961623162769_);enable-background:new    ;" d="
										M21.3-25.7L-26,21.6l24.1,24.1L45.4-1.5L21.3-25.7z"/>
									
										<linearGradient id="SVGID_00000082342751056419747350000016447437215580830379_" gradientUnits="userSpaceOnUse" x1="33.415" y1="-766.2881" x2="-28.6423" y2="-748.3185" gradientTransform="matrix(1 0 0 -1 0 -754.11)">
										<stop  offset="0" style="stop-color:#FFFFFF;stop-opacity:0.6"/>
										<stop  offset="1" style="stop-color:#FFFFFF;stop-opacity:0"/>
									</linearGradient>
									
										<path style="opacity:0.7;fill:url(#SVGID_00000082342751056419747350000016447437215580830379_);enable-background:new    ;" d="
										M14.3-32.7L-33,14.6l24.9,24.9L39.2-7.8L14.3-32.7z"/>
									
										<linearGradient id="SVGID_00000139296161215200772650000000364322798304578976_" gradientUnits="userSpaceOnUse" x1="23.0821" y1="-763.9946" x2="-24.1377" y2="-744.387" gradientTransform="matrix(1 0 0 -1 0 -754.11)">
										<stop  offset="0" style="stop-color:#FFFFFF;stop-opacity:0.6"/>
										<stop  offset="1" style="stop-color:#FFFFFF;stop-opacity:0"/>
									</linearGradient>
									
										<path style="opacity:0.9;fill:url(#SVGID_00000139296161215200772650000000364322798304578976_);enable-background:new    ;" d="
										M14.3-32.7L-33,14.6l18.7,18.7L33-14L14.3-32.7z"/>
								</g>
							</g>
						</g>
					</g>
				</g>
			</g>
		</g>
	</g>
</g>
</svg>
