<svg width="21" height="21" viewBox="0 0 21 21" fill="none" xmlns="http://www.w3.org/2000/svg">
<path d="M20.3335 15.002C20.3331 16.3696 19.8656 17.696 19.0085 18.7616C18.1514 19.8273 16.9561 20.5683 15.6205 20.862L14.9825 18.948C15.5667 18.8518 16.1223 18.6271 16.6093 18.2903C17.0962 17.9534 17.5024 17.5128 17.7985 17H15.3335C14.8031 17 14.2944 16.7893 13.9193 16.4142C13.5442 16.0391 13.3335 15.5304 13.3335 15V11C13.3335 10.4696 13.5442 9.96086 13.9193 9.58579C14.2944 9.21071 14.8031 9 15.3335 9H18.2715C18.0275 7.0669 17.0864 5.28927 15.6249 4.00068C14.1634 2.71208 12.2819 2.00108 10.3335 2.00108C8.38505 2.00108 6.50356 2.71208 5.04207 4.00068C3.58058 5.28927 2.63953 7.0669 2.3955 9H5.3335C5.86393 9 6.37264 9.21071 6.74771 9.58579C7.12278 9.96086 7.3335 10.4696 7.3335 11V15C7.3335 15.5304 7.12278 16.0391 6.74771 16.4142C6.37264 16.7893 5.86393 17 5.3335 17H2.3335C1.80306 17 1.29436 16.7893 0.919282 16.4142C0.54421 16.0391 0.333496 15.5304 0.333496 15V10C0.333496 4.477 4.8105 0 10.3335 0C15.8565 0 20.3335 4.477 20.3335 10V15.002Z" fill="black"/>
</svg>
