<svg xmlns="http://www.w3.org/2000/svg" width="88" height="33" viewBox="0 0 88 33" fill="none">
<path d="M0 5C0 2.23858 2.23858 0 5 0H83C85.7614 0 88 2.23858 88 5V21C88 23.7614 85.7614 26 83 26H5C2.23858 26 0 23.7614 0 21V5Z" fill="#318d36"/>
<path d="M12.9125 9.275C13.8292 9.275 14.6333 9.45417 15.325 9.8125C16.025 10.1708 16.5625 10.6833 16.9375 11.35C17.3208 12.0083 17.5125 12.775 17.5125 13.65C17.5125 14.525 17.3208 15.2917 16.9375 15.95C16.5625 16.6 16.025 17.1042 15.325 17.4625C14.6333 17.8208 13.8292 18 12.9125 18H9.8625V9.275H12.9125ZM12.85 16.5125C13.7667 16.5125 14.475 16.2625 14.975 15.7625C15.475 15.2625 15.725 14.5583 15.725 13.65C15.725 12.7417 15.475 12.0333 14.975 11.525C14.475 11.0083 13.7667 10.75 12.85 10.75H11.6125V16.5125H12.85Z" fill="#ffffff"/>
<path d="M20.5725 9.275V18H18.8225V9.275H20.5725Z" fill="#ffffff"/>
<path d="M25.314 18.0875C24.7056 18.0875 24.1556 17.9833 23.664 17.775C23.1806 17.5667 22.7973 17.2667 22.514 16.875C22.2306 16.4833 22.0848 16.0208 22.0765 15.4875H23.9515C23.9765 15.8458 24.1015 16.1292 24.3265 16.3375C24.5598 16.5458 24.8765 16.65 25.2765 16.65C25.6848 16.65 26.0056 16.5542 26.239 16.3625C26.4723 16.1625 26.589 15.9042 26.589 15.5875C26.589 15.3292 26.5098 15.1167 26.3515 14.95C26.1931 14.7833 25.9931 14.6542 25.7515 14.5625C25.5181 14.4625 25.1931 14.3542 24.7765 14.2375C24.2098 14.0708 23.7473 13.9083 23.389 13.75C23.039 13.5833 22.7348 13.3375 22.4765 13.0125C22.2265 12.6792 22.1015 12.2375 22.1015 11.6875C22.1015 11.1708 22.2306 10.7208 22.489 10.3375C22.7473 9.95417 23.1098 9.6625 23.5765 9.4625C24.0431 9.25417 24.5765 9.15 25.1765 9.15C26.0765 9.15 26.8056 9.37083 27.364 9.8125C27.9306 10.2458 28.2431 10.8542 28.3015 11.6375H26.3765C26.3598 11.3375 26.2306 11.0917 25.989 10.9C25.7556 10.7 25.4431 10.6 25.0515 10.6C24.7098 10.6 24.4348 10.6875 24.2265 10.8625C24.0265 11.0375 23.9265 11.2917 23.9265 11.625C23.9265 11.8583 24.0015 12.0542 24.1515 12.2125C24.3098 12.3625 24.5015 12.4875 24.7265 12.5875C24.9598 12.6792 25.2848 12.7875 25.7015 12.9125C26.2681 13.0792 26.7306 13.2458 27.089 13.4125C27.4473 13.5792 27.7556 13.8292 28.014 14.1625C28.2723 14.4958 28.4015 14.9333 28.4015 15.475C28.4015 15.9417 28.2806 16.375 28.039 16.775C27.7973 17.175 27.4431 17.4958 26.9765 17.7375C26.5098 17.9708 25.9556 18.0875 25.314 18.0875Z" fill="#ffffff"/>
<path d="M36.2812 11.975C36.2812 12.4417 36.1687 12.8792 35.9437 13.2875C35.727 13.6958 35.3811 14.025 34.9062 14.275C34.4395 14.525 33.8478 14.65 33.1312 14.65H31.6687V18H29.9187V9.275H33.1312C33.8062 9.275 34.3812 9.39167 34.8562 9.625C35.3312 9.85833 35.6853 10.1792 35.9187 10.5875C36.1603 10.9958 36.2812 11.4583 36.2812 11.975ZM33.0562 13.2375C33.5395 13.2375 33.8978 13.1292 34.1312 12.9125C34.3645 12.6875 34.4812 12.375 34.4812 11.975C34.4812 11.125 34.0062 10.7 33.0562 10.7H31.6687V13.2375H33.0562Z" fill="#ffffff"/>
<path d="M41.5736 18.0875C40.757 18.0875 40.007 17.8958 39.3236 17.5125C38.6403 17.1292 38.0986 16.6 37.6986 15.925C37.2986 15.2417 37.0986 14.4708 37.0986 13.6125C37.0986 12.7625 37.2986 12 37.6986 11.325C38.0986 10.6417 38.6403 10.1083 39.3236 9.725C40.007 9.34167 40.757 9.15 41.5736 9.15C42.3986 9.15 43.1486 9.34167 43.8236 9.725C44.507 10.1083 45.0445 10.6417 45.4361 11.325C45.8361 12 46.0361 12.7625 46.0361 13.6125C46.0361 14.4708 45.8361 15.2417 45.4361 15.925C45.0445 16.6 44.507 17.1292 43.8236 17.5125C43.1403 17.8958 42.3903 18.0875 41.5736 18.0875ZM41.5736 16.525C42.0986 16.525 42.5611 16.4083 42.9611 16.175C43.3611 15.9333 43.6736 15.5917 43.8986 15.15C44.1236 14.7083 44.2361 14.1958 44.2361 13.6125C44.2361 13.0292 44.1236 12.5208 43.8986 12.0875C43.6736 11.6458 43.3611 11.3083 42.9611 11.075C42.5611 10.8417 42.0986 10.725 41.5736 10.725C41.0486 10.725 40.582 10.8417 40.1736 11.075C39.7736 11.3083 39.4611 11.6458 39.2361 12.0875C39.0111 12.5208 38.8986 13.0292 38.8986 13.6125C38.8986 14.1958 39.0111 14.7083 39.2361 15.15C39.4611 15.5917 39.7736 15.9333 40.1736 16.175C40.582 16.4083 41.0486 16.525 41.5736 16.525Z" fill="#ffffff"/>
<path d="M54.8006 18H53.0506L49.0881 12.0125V18H47.3381V9.2625H49.0881L53.0506 15.2625V9.2625H54.8006V18Z" fill="#ffffff"/>
<path d="M58.28 9.275V18H56.53V9.275H58.28Z" fill="#ffffff"/>
<path d="M64.959 13.525C65.4507 13.6167 65.8548 13.8625 66.1715 14.2625C66.4882 14.6625 66.6465 15.1208 66.6465 15.6375C66.6465 16.1042 66.5298 16.5167 66.2965 16.875C66.0715 17.225 65.7423 17.5 65.309 17.7C64.8756 17.9 64.3632 18 63.7715 18H60.009V9.275H63.609C64.2007 9.275 64.709 9.37083 65.134 9.5625C65.5673 9.75417 65.8923 10.0208 66.109 10.3625C66.334 10.7042 66.4465 11.0917 66.4465 11.525C66.4465 12.0333 66.309 12.4583 66.034 12.8C65.7673 13.1417 65.409 13.3833 64.959 13.525ZM61.759 12.875H63.359C63.7757 12.875 64.0965 12.7833 64.3215 12.6C64.5465 12.4083 64.659 12.1375 64.659 11.7875C64.659 11.4375 64.5465 11.1667 64.3215 10.975C64.0965 10.7833 63.7757 10.6875 63.359 10.6875H61.759V12.875ZM63.5215 16.575C63.9465 16.575 64.2757 16.475 64.509 16.275C64.7507 16.075 64.8715 15.7917 64.8715 15.425C64.8715 15.05 64.7465 14.7583 64.4965 14.55C64.2465 14.3333 63.909 14.225 63.484 14.225H61.759V16.575H63.5215Z" fill="#ffffff"/>
<path d="M69.7912 16.6125H72.6662V18H68.0412V9.275H69.7912V16.6125Z" fill="#ffffff"/>
<path d="M75.5285 10.6875V12.875H78.466V14.2625H75.5285V16.575H78.841V18H73.7785V9.2625H78.841V10.6875H75.5285Z" fill="#ffffff"/>
<path d="M44 33L37 26H51L44 33Z" fill="#318d36"/>
</svg>