<svg width="30" height="30" viewBox="0 0 30 30" fill="none" xmlns="http://www.w3.org/2000/svg">
<path d="M6 9H19L22 13H24C25.11 13 26 13.89 26 15V18H24C24 18.7956 23.6839 19.5587 23.1213 20.1213C22.5587 20.6839 21.7956 21 21 21C20.2044 21 19.4413 20.6839 18.8787 20.1213C18.3161 19.5587 18 18.7956 18 18H12C12 18.7956 11.6839 19.5587 11.1213 20.1213C10.5587 20.6839 9.79565 21 9 21C8.20435 21 7.44129 20.6839 6.87868 20.1213C6.31607 19.5587 6 18.7956 6 18H4V11C4 9.89 4.89 9 6 9ZM5.5 10.5V13H13.5V10.5H5.5ZM15 10.5V13H20.14L18.25 10.5H15ZM9 16.5C8.60218 16.5 8.22064 16.658 7.93934 16.9393C7.65804 17.2206 7.5 17.6022 7.5 18C7.5 18.3978 7.65804 18.7794 7.93934 19.0607C8.22064 19.342 8.60218 19.5 9 19.5C9.39782 19.5 9.77936 19.342 10.0607 19.0607C10.342 18.7794 10.5 18.3978 10.5 18C10.5 17.6022 10.342 17.2206 10.0607 16.9393C9.77936 16.658 9.39782 16.5 9 16.5ZM21 16.5C20.6022 16.5 20.2206 16.658 19.9393 16.9393C19.658 17.2206 19.5 17.6022 19.5 18C19.5 18.3978 19.658 18.7794 19.9393 19.0607C20.2206 19.342 20.6022 19.5 21 19.5C21.3978 19.5 21.7794 19.342 22.0607 19.0607C22.342 18.7794 22.5 18.3978 22.5 18C22.5 17.6022 22.342 17.2206 22.0607 16.9393C21.7794 16.658 21.3978 16.5 21 16.5Z" fill="black"/>
</svg>
