<svg width="30" height="30" viewBox="0 0 30 30" fill="none" xmlns="http://www.w3.org/2000/svg">
<path d="M18.2727 10H10.0909L6 15V17.5H7.63636C7.63636 18.163 7.89497 18.7989 8.35528 19.2678C8.8156 19.7366 9.43992 20 10.0909 20C10.7419 20 11.3662 19.7366 11.8265 19.2678C12.2869 18.7989 12.5455 18.163 12.5455 17.5H17.4545C17.4545 18.163 17.7131 18.7989 18.1735 19.2678C18.6338 19.7366 19.2581 20 19.9091 20C20.5601 20 21.1844 19.7366 21.6447 19.2678C22.105 18.7989 22.3636 18.163 22.3636 17.5H24V15C24 14.075 23.2718 13.3333 22.3636 13.3333H20.7273L18.2727 10ZM10.5 11.25H13.7727V13.3333H8.86364L10.5 11.25ZM15 11.25H17.8636L19.4673 13.3333H15V11.25ZM10.0909 16.25C10.4164 16.25 10.7286 16.3817 10.9587 16.6161C11.1889 16.8505 11.3182 17.1685 11.3182 17.5C11.3182 17.8315 11.1889 18.1495 10.9587 18.3839C10.7286 18.6183 10.4164 18.75 10.0909 18.75C9.76542 18.75 9.45325 18.6183 9.2231 18.3839C8.99294 18.1495 8.86364 17.8315 8.86364 17.5C8.86364 17.1685 8.99294 16.8505 9.2231 16.6161C9.45325 16.3817 9.76542 16.25 10.0909 16.25ZM19.9091 16.25C20.2346 16.25 20.5467 16.3817 20.7769 16.6161C21.0071 16.8505 21.1364 17.1685 21.1364 17.5C21.1364 17.8315 21.0071 18.1495 20.7769 18.3839C20.5467 18.6183 20.2346 18.75 19.9091 18.75C19.5836 18.75 19.2714 18.6183 19.0413 18.3839C18.8111 18.1495 18.6818 17.8315 18.6818 17.5C18.6818 17.1685 18.8111 16.8505 19.0413 16.6161C19.2714 16.3817 19.5836 16.25 19.9091 16.25Z" fill="black"/>
</svg>
